<svg xmlns="http://www.w3.org/2000/svg" viewBox="0 0 1000 1000">
  <path d="M 494.76 554.21 L 619.94 537.24 L 626.55 535.04 L 631.52 529.86 L 634.96 522.72 L 635.59 515.63 L 633.74 508.19 L 613.70 423.01 L 610.26 413.72 L 605.56 406.86 L 597.73 400.30 L 591.17 397.04 L 555.69 386.00 L 543.89 380.02 L 535.11 374.03 L 527.18 366.54 L 521.21 359.51 L 516.76 353.64 L 511.37 340.74 L 509.41 330.92 L 509.25 320.23 L 511.42 307.57 L 515.44 294.26 L 524.27 260.39 L 527.39 235.29 L 527.71 217.45 L 526.12 201.99 L 516.34 122.51 L 509.84 72.43 L 508.57 66.62 L 507.35 61.91 L 503.60 57.09 L 497.20 51.80 L 493.34 50.46 L 488.89 50.00 L 484.66 50.70 L 480.12 52.50 L 476.73 55.93 L 474.67 59.12 L 472.08 64.47 L 464.30 87.59 L 456.90 121.06 L 394.29 307.74 L 369.85 380.02 L 356.32 420.34 L 346.16 451.60 L 335.59 490.41 L 313.22 561.88 L 291.90 626.26 L 289.42 632.53 L 288.78 637.24 L 289.42 639.97 L 291.80 642.70 L 297.19 642.87 L 317.13 640.49 L 321.52 640.49 L 325.06 644.73 L 336.38 687.73 L 338.71 695.80 L 345.84 713.64 L 352.35 726.42 L 366.36 746.82 L 382.33 765.41 L 402.43 782.67 L 487.63 849.89 L 507.03 865.64 L 522.32 876.56 L 542.73 889.75 L 560.23 899.86 L 588.53 913.51 L 614.39 925.13 L 652.83 943.32 L 669.28 949.94 L 678.53 950.00 L 688.32 948.02 L 697.26 942.85 L 702.01 938.26 L 705.19 933.73 L 708.36 927.05 L 710.16 920.54 L 711.22 914.50 L 710.37 904.51 L 708.36 897.24 L 705.51 890.21 L 701.33 883.94 L 695.40 878.24 L 688.05 873.31 L 680.28 869.88 L 668.96 868.25 L 579.27 861.05 L 568.22 859.59 L 563.46 858.55 L 558.44 856.75 L 510.26 826.65 L 505.39 822.99 L 502.12 818.81 L 498.63 809.86 L 487.41 757.39 L 488.15 753.27 L 490.75 750.48 L 494.66 749.37 L 534.64 743.39 L 539.35 741.41 L 542.36 739.85 L 545.53 736.59 L 548.71 730.61 L 549.45 723.23 L 549.55 686.91 L 546.64 680.70 L 543.05 676.98 L 537.60 674.89 L 530.14 673.26 L 523.64 672.39 L 514.97 672.10 L 506.40 672.74 L 422.95 685.58 L 415.76 686.10 L 406.61 685.75 L 397.67 684.18 L 391.54 682.15 L 387.46 678.43 L 383.23 673.90 L 360.33 632.30 L 348.49 613.18 L 346.00 607.55 L 344.26 600.05 L 343.68 593.66 L 343.57 585.99 L 344.84 580.76 L 347.91 576.99 L 351.71 575.07 L 360.44 573.50 L 494.76 554.21" fill="none" stroke="currentColor" stroke-width="2"/>
</svg>