<svg xmlns="http://www.w3.org/2000/svg" viewBox="0 0 1000 1000">
  <path d="M 440.46 414.38 L 603.65 171.00 L 649.42 111.79 L 665.77 102.79 L 687.88 105.99 L 707.74 121.74 L 721.96 144.36 L 725.75 163.43 L 725.95 266.70 L 720.50 288.01 L 703.26 313.47 L 563.05 461.63 L 557.59 478.09 L 555.84 489.93 L 559.54 502.84 L 567.04 514.57 L 584.18 524.87 L 597.71 527.71 L 613.00 525.46 L 796.06 430.13 L 808.52 413.55 L 814.26 400.52 L 818.74 376.83 L 815.53 349.95 L 800.15 317.38 L 795.08 296.89 L 792.84 279.60 L 801.80 191.97 L 811.05 167.45 L 833.15 143.77 L 861.30 133.23 L 890.80 133.58 L 916.70 144.71 L 937.83 163.90 L 950.00 195.28 L 949.03 213.28 L 898.49 674.33 L 886.90 705.12 L 868.40 736.27 L 848.54 758.65 L 820.69 780.56 L 780.38 800.10 L 574.44 829.82 L 552.82 825.56 L 541.92 817.39 L 534.23 800.69 L 538.02 780.56 L 548.15 767.06 L 564.61 760.66 L 638.61 751.42 L 652.04 743.73 L 669.28 725.84 L 683.40 716.49 L 702.58 713.65 L 753.80 709.50 L 772.30 699.91 L 784.86 683.56 L 792.16 665.33 L 797.32 579.35 L 792.55 561.35 L 782.62 548.20 L 770.06 539.56 L 753.80 536.36 L 736.85 536.36 L 436.27 695.88 L 427.31 708.67 L 425.37 722.41 L 431.79 733.66 L 444.26 745.86 L 463.15 758.29 L 469.28 770.73 L 461.59 789.20 L 424.49 831.72 L 407.84 847.11 L 382.52 856.23 L 80.38 897.21 L 64.70 895.32 L 53.51 881.22 L 50.00 860.73 L 56.43 842.97 L 68.70 831.25 L 95.47 815.38 L 109.49 814.78 L 124.10 825.68 L 135.78 827.46 L 151.75 822.96 L 167.14 812.41 L 185.83 792.52 L 234.81 725.61 L 440.46 414.38" fill="none" stroke="currentColor" stroke-width="2"/>
</svg>