<svg xmlns="http://www.w3.org/2000/svg" viewBox="0 0 1000 1000">
  <path d="M 649.86 724.85 L 587.86 741.32 L 434.29 783.12 L 423.70 783.92 L 416.64 777.53 L 404.76 754.51 L 367.14 703.67 L 326.31 645.64 L 294.23 594.40 L 264.97 543.88 L 217.09 439.49 L 203.90 411.67 L 183.65 378.90 L 152.49 340.77 L 100.76 288.82 L 52.88 240.94 L 50.00 234.54 L 50.33 227.75 L 55.81 224.39 L 68.35 222.15 L 107.54 217.60 L 146.74 216.08 L 187.23 216.48 L 225.78 220.24 L 270.45 227.43 L 406.98 253.81 L 469.30 262.04 L 603.93 267.72 L 614.90 271.47 L 621.63 278.99 L 624.18 287.30 L 623.53 296.01 L 620.00 304.25 L 606.54 323.51 L 595.90 336.30 L 576.30 353.64 L 554.80 365.31 L 528.74 373.95 L 500.46 378.50 L 470.93 376.58 L 356.22 358.12 L 340.81 360.04 L 328.27 364.51 L 317.36 372.11 L 307.69 382.26 L 301.61 394.33 L 298.36 407.52 L 297.76 419.59 L 299.66 432.78 L 303.19 442.53 L 358.78 539.73 L 368.11 549.96 L 382.88 559.31 L 399.92 563.15 L 416.32 561.63 L 433.64 554.43 L 444.28 545.80 L 455.19 532.21 L 465.45 519.02 L 476.41 507.75 L 489.55 498.72 L 504.97 489.61 L 526.52 481.70 L 548.99 476.82 L 726.99 473.06 L 863.90 469.71 L 878.34 470.03 L 892.46 474.98 L 904.07 483.61 L 913.36 495.28 L 920.41 510.71 L 948.37 604.95 L 950.00 613.58 L 948.37 619.98 L 945.17 624.93 L 934.26 633.57 L 919.82 642.20 L 901.14 651.63 L 879.97 660.66 L 854.89 668.98 L 649.86 724.85" fill="none" stroke="currentColor" stroke-width="2"/>
</svg>