<svg xmlns="http://www.w3.org/2000/svg" viewBox="0 0 1000 1000">
  <path d="M 423.22 714.33 L 377.82 669.50 L 310.60 600.93 L 306.71 596.98 L 305.06 591.55 L 305.33 589.17 L 306.45 586.97 L 308.72 581.43 L 312.52 574.70 L 314.88 566.11 L 316.22 555.54 L 316.49 547.80 L 314.12 532.70 L 311.18 525.01 L 306.58 516.99 L 301.18 510.54 L 289.21 498.62 L 275.02 485.61 L 255.02 466.28 L 230.65 440.28 L 220.87 429.82 L 194.89 397.20 L 181.99 379.96 L 168.64 358.99 L 142.98 314.05 L 136.64 301.44 L 132.80 292.00 L 133.29 286.74 L 135.48 283.01 L 140.88 280.30 L 159.00 277.13 L 193.29 270.12 L 197.26 268.54 L 199.76 266.90 L 201.45 264.53 L 203.95 257.12 L 204.45 249.32 L 202.12 182.39 L 201.32 157.86 L 201.90 155.77 L 209.18 147.29 L 215.83 142.26 L 266.81 105.46 L 278.10 98.95 L 330.73 77.47 L 350.59 70.29 L 368.58 59.44 L 382.24 51.13 L 388.36 50.06 L 393.22 50.00 L 397.73 52.66 L 403.67 59.67 L 410.86 66.00 L 420.68 72.95 L 433.18 77.64 L 449.38 79.62 L 464.02 80.30 L 476.43 82.17 L 490.27 86.97 L 502.50 92.79 L 515.98 102.80 L 525.09 110.94 L 534.15 122.75 L 542.63 137.45 L 547.41 152.43 L 550.40 164.02 L 551.92 173.74 L 564.24 241.07 L 564.32 249.49 L 562.99 259.61 L 559.68 269.95 L 555.80 278.77 L 548.88 288.61 L 542.50 296.41 L 535.49 305.91 L 531.96 312.80 L 528.88 320.60 L 526.56 329.48 L 512.59 403.59 L 511.52 412.63 L 510.94 423.37 L 510.94 433.21 L 511.78 451.07 L 513.84 464.92 L 517.63 480.81 L 522.32 496.18 L 528.39 509.41 L 534.73 521.68 L 545.26 538.19 L 552.32 548.59 L 566.42 563.57 L 613.07 605.06 L 620.44 610.77 L 627.35 614.56 L 632.44 616.99 L 642.31 619.98 L 651.77 620.77 L 663.29 620.32 L 673.69 620.27 L 683.78 619.87 L 692.35 620.15 L 699.67 621.96 L 706.99 625.52 L 711.99 628.35 L 720.87 636.26 L 772.43 680.19 L 791.63 696.24 L 801.00 707.49 L 807.96 715.57 L 815.55 727.61 L 823.23 745.48 L 830.91 767.86 L 851.26 838.30 L 863.45 883.07 L 865.77 895.51 L 867.07 901.78 L 867.20 905.62 L 863.99 907.32 L 854.43 910.99 L 808.54 929.54 L 761.27 948.36 L 757.61 949.38 L 751.72 950.00 L 744.53 949.49 L 737.12 946.44 L 729.62 941.41 L 725.20 937.34 L 720.96 930.72 L 692.93 879.00 L 675.97 851.53 L 673.69 847.85 L 671.32 845.70 L 668.96 844.80 L 664.90 844.63 L 662.04 846.27 L 631.60 880.75 L 627.35 884.99 L 622.80 887.65 L 617.09 889.91 L 612.00 891.10 L 607.45 891.04 L 602.00 889.97 L 594.46 887.31 L 588.88 883.35 L 586.69 881.20 L 423.22 714.33" fill="none" stroke="currentColor" stroke-width="2"/>
</svg>