<svg xmlns="http://www.w3.org/2000/svg" viewBox="0 0 1000 1000">
  <path d="M 877.96 339.60 L 943.84 311.36 L 947.33 308.58 L 949.55 304.49 L 950.00 300.55 L 948.89 294.85 L 935.50 260.19 L 912.87 216.32 L 894.21 173.86 L 891.13 171.82 L 887.20 171.14 L 824.17 196.36 L 747.09 226.20 L 641.93 273.48 L 551.27 315.01 L 545.33 321.24 L 545.33 329.71 L 574.97 406.59 L 575.19 412.58 L 570.59 417.84 L 518.99 442.18 L 489.80 458.25 L 450.48 483.47 L 448.07 486.68 L 448.96 491.31 L 455.52 505.72 L 455.30 509.86 L 452.00 513.07 L 437.09 526.17 L 347.50 595.50 L 332.37 609.23 L 325.99 613.61 L 319.61 613.37 L 314.34 607.63 L 290.64 537.86 L 287.78 534.89 L 283.40 533.96 L 277.69 533.96 L 269.12 528.70 L 263.85 527.34 L 258.36 527.53 L 253.10 528.02 L 247.38 525.73 L 244.53 521.35 L 239.48 504.84 L 237.07 501.83 L 233.55 499.54 L 228.28 499.29 L 190.52 512.39 L 130.35 541.80 L 90.62 565.66 L 82.72 572.08 L 76.56 580.31 L 70.85 592.05 L 51.34 658.36 L 50.00 667.32 L 56.38 758.90 L 58.35 764.65 L 63.17 770.34 L 144.63 813.04 L 167.48 823.17 L 179.98 827.75 L 186.99 828.86 L 195.12 827.50 L 200.83 823.61 L 204.58 819.47 L 229.17 774.04 L 234.88 763.48 L 241.45 755.00 L 311.48 691.17 L 317.20 683.14 L 320.05 675.35 L 326.21 633.33 L 328.84 625.10 L 334.11 617.27 L 340.27 611.76 L 441.06 533.52 L 454.67 524.56 L 470.03 516.29 L 484.31 509.42 L 529.75 490.38 L 570.15 471.54 L 668.71 429.33 L 708.70 411.17 L 811.00 367.59 L 877.96 339.60" fill="none" stroke="currentColor" stroke-width="2"/>
</svg>