<svg xmlns="http://www.w3.org/2000/svg" viewBox="0 0 1000 1000">
  <path d="M 389.89 145.44 L 340.38 58.93 L 339.86 55.05 L 342.05 51.60 L 346.63 50.00 L 351.73 51.41 L 368.03 59.61 L 407.57 78.59 L 426.59 90.29 L 446.38 104.95 L 464.13 119.81 L 478.20 135.15 L 553.80 225.30 L 559.12 230.35 L 568.24 236.03 L 584.54 246.56 L 591.68 253.65 L 597.71 263.26 L 601.58 272.00 L 604.14 281.81 L 606.34 299.92 L 607.61 306.32 L 609.80 312.25 L 614.01 320.01 L 651.36 379.78 L 675.14 417.74 L 681.73 431.91 L 685.93 442.45 L 690.88 459.39 L 720.72 563.52 L 766.49 721.64 L 777.09 759.65 L 777.65 765.82 L 776.53 772.66 L 772.89 778.15 L 767.57 782.76 L 760.80 786.40 L 756.78 790.28 L 754.02 794.85 L 751.83 801.74 L 752.20 808.58 L 761.35 849.56 L 761.17 856.65 L 759.71 863.05 L 754.77 870.14 L 748.89 874.95 L 644.59 947.04 L 638.00 949.81 L 631.42 950.00 L 624.46 947.96 L 618.77 943.83 L 614.75 937.91 L 613.11 931.94 L 612.74 925.53 L 614.75 919.56 L 618.40 913.40 L 623.72 909.08 L 669.30 880.92 L 674.24 875.87 L 676.97 870.82 L 678.08 864.90 L 677.52 857.57 L 658.66 802.18 L 652.82 779.55 L 639.46 709.74 L 632.87 669.69 L 631.42 662.85 L 628.11 655.52 L 623.72 649.55 L 617.13 643.14 L 609.80 638.33 L 601.76 635.13 L 593.32 633.77 L 566.05 631.92 L 555.63 633.09 L 546.10 635.81 L 536.43 639.93 L 528.54 645.23 L 519.39 653.67 L 513.54 662.12 L 507.14 674.26 L 481.32 738.82 L 458.26 796.25 L 453.31 805.19 L 447.46 811.35 L 439.42 815.92 L 431.35 818.20 L 423.87 818.44 L 416.36 816.84 L 409.96 813.88 L 399.32 806.98 L 392.36 804.02 L 383.95 802.66 L 375.54 803.58 L 367.84 806.06 L 361.25 810.67 L 357.05 815.92 L 351.91 823.00 L 309.64 889.37 L 305.44 893.25 L 300.31 896.02 L 294.09 897.38 L 287.13 896.94 L 281.10 894.17 L 252.53 873.35 L 235.71 861.01 L 231.51 855.53 L 227.11 848.88 L 224.55 842.47 L 222.72 834.90 L 222.35 827.13 L 223.62 817.76 L 226.56 809.75 L 230.39 799.46 L 236.08 783.87 L 245.95 766.25 L 256.77 750.91 L 273.22 732.42 L 300.68 705.62 L 316.79 693.04 L 330.52 685.03 L 401.17 648.19 L 411.41 641.78 L 421.12 634.21 L 430.09 625.76 L 437.75 616.58 L 444.90 606.97 L 454.42 589.40 L 462.12 572.46 L 479.68 533.33 L 482.78 524.83 L 484.63 515.70 L 484.97 504.25 L 483.15 493.96 L 472.73 467.16 L 461.38 437.64 L 447.65 400.80 L 444.16 387.11 L 440.88 370.84 L 438.87 355.74 L 437.57 342.93 L 433.55 283.65 L 434.29 279.77 L 436.67 277.00 L 440.32 276.08 L 446.54 277.00 L 452.97 277.00 L 457.36 276.08 L 460.27 272.88 L 461.01 269.24 L 459.18 264.43 L 436.67 227.58 L 389.89 145.44" fill="none" stroke="currentColor" stroke-width="2"/>
</svg>