<svg xmlns="http://www.w3.org/2000/svg" viewBox="0 0 1000 1000">
  <path d="M 215.92 476.62 L 222.96 224.02 L 229.62 58.58 L 232.77 51.17 L 239.36 50.00 L 246.47 51.92 L 251.79 55.83 L 285.94 90.42 L 295.22 93.92 L 305.41 93.17 L 364.79 73.92 L 379.02 72.34 L 391.90 73.17 L 781.46 148.59 L 794.79 152.51 L 801.90 159.93 L 803.62 169.43 L 802.28 178.43 L 797.86 188.60 L 789.47 198.85 L 779.74 207.10 L 766.41 217.35 L 719.45 252.27 L 681.71 291.52 L 672.42 300.61 L 664.94 313.52 L 648.09 351.69 L 642.32 359.95 L 633.41 365.78 L 624.57 370.53 L 610.42 372.11 L 567.81 365.03 L 556.28 365.45 L 544.37 367.78 L 534.56 372.86 L 522.65 383.86 L 436.16 493.46 L 427.77 500.96 L 415.79 502.88 L 408.30 497.04 L 405.61 485.21 L 406.06 467.21 L 426.87 343.03 L 438.86 265.27 L 440.65 249.94 L 438.41 235.77 L 435.34 225.18 L 429.12 214.60 L 393.62 183.93 L 388.76 181.60 L 383.44 183.10 L 380.37 188.60 L 367.49 284.52 L 363.97 348.53 L 357.75 463.62 L 353.34 583.88 L 348.84 693.48 L 350.64 711.48 L 357.75 722.15 L 368.84 727.98 L 384.34 731.15 L 400.29 729.98 L 420.21 726.06 L 440.65 716.23 L 457.88 704.06 L 474.73 686.81 L 484.99 669.89 L 504.01 620.39 L 514.64 599.55 L 524.82 587.38 L 538.15 576.38 L 554.11 566.55 L 576.27 561.05 L 600.61 560.63 L 617.91 564.63 L 640.97 575.63 L 701.71 605.80 L 714.14 614.89 L 724.77 625.47 L 730.09 635.30 L 736.68 646.31 L 736.68 656.14 L 731.36 666.31 L 720.73 676.56 L 706.12 687.56 L 246.02 945.25 L 237.64 949.58 L 224.31 950.00 L 218.54 944.50 L 198.17 901.25 L 196.38 883.99 L 196.82 851.41 L 202.59 672.64 L 215.92 476.62" fill="none" stroke="currentColor" stroke-width="2"/>
</svg>