<svg xmlns="http://www.w3.org/2000/svg" viewBox="0 0 1000 1000">
  <path d="M 270.90 696.02 L 321.25 890.90 L 326.59 911.43 L 331.92 923.27 L 343.99 941.22 L 350.19 946.28 L 359.11 949.90 L 367.94 950.00 L 377.65 947.99 L 382.72 945.32 L 398.45 930.81 L 413.75 913.81 L 419.79 909.33 L 427.65 906.56 L 435.61 906.08 L 447.15 909.80 L 471.63 924.79 L 491.04 932.81 L 505.46 936.54 L 518.67 938.26 L 530.73 938.92 L 548.48 936.82 L 562.03 933.86 L 578.73 927.85 L 594.38 918.78 L 609.85 906.65 L 622.35 893.48 L 632.23 879.44 L 639.58 866.26 L 645.70 851.46 L 669.65 772.31 L 679.79 732.59 L 697.10 665.18 L 718.26 579.06 L 755.42 437.94 L 768.80 387.05 L 778.24 351.34 L 782.61 334.72 L 784.27 324.22 L 783.22 314.39 L 780.77 307.70 L 775.44 299.78 L 765.82 293.09 L 754.63 288.42 L 738.46 285.07 L 690.11 275.53 L 671.23 273.42 L 659.51 274.28 L 645.17 276.29 L 631.62 280.30 L 619.64 287.36 L 608.28 294.05 L 596.91 303.41 L 585.98 315.53 L 571.03 334.53 L 521.90 400.89 L 493.05 441.76 L 468.48 476.70 L 441.55 512.03 L 427.39 531.70 L 416.46 546.50 L 408.86 554.90 L 400.38 560.15 L 388.31 564.45 L 375.02 566.17 L 355.09 565.69 L 341.80 563.49 L 331.22 560.15 L 321.78 555.86 L 305.61 547.07 L 297.56 539.91 L 292.23 532.85 L 287.07 522.63 L 283.14 508.78 L 278.24 488.35 L 274.22 469.64 L 268.80 435.26 L 267.75 421.04 L 268.01 406.62 L 271.42 395.64 L 276.93 390.10 L 280.78 388.10 L 285.58 386.47 L 292.14 385.71 L 299.05 387.43 L 306.30 390.29 L 325.89 405.19 L 333.76 409.87 L 339.88 412.44 L 346.43 413.78 L 352.47 414.26 L 359.11 413.40 L 368.20 410.06 L 378.96 401.18 L 384.99 392.20 L 388.22 382.37 L 388.75 373.97 L 387.44 364.23 L 383.77 356.59 L 375.37 344.27 L 367.77 336.63 L 340.93 310.38 L 327.11 294.53 L 317.58 280.39 L 310.68 261.49 L 305.34 238.00 L 302.90 223.77 L 301.58 210.98 L 302.46 200.48 L 306.57 193.32 L 309.98 189.02 L 315.48 187.21 L 320.03 186.06 L 325.89 187.01 L 332.71 189.78 L 365.49 227.12 L 393.82 258.43 L 398.72 262.44 L 409.29 269.80 L 419.00 274.09 L 427.04 276.48 L 436.92 278.10 L 446.10 279.15 L 456.68 279.25 L 473.29 276.86 L 485.97 272.76 L 499.43 265.02 L 513.07 253.95 L 520.68 243.92 L 528.81 232.65 L 550.58 198.38 L 574.62 158.08 L 601.81 114.07 L 603.56 108.91 L 603.99 102.80 L 602.33 96.79 L 599.19 90.29 L 593.15 84.66 L 578.90 77.21 L 558.18 69.67 L 516.13 53.82 L 507.91 51.62 L 497.42 50.00 L 476.26 52.29 L 457.73 55.44 L 417.16 64.13 L 403.70 68.71 L 376.95 79.89 L 363.74 85.71 L 332.27 102.71 L 319.77 111.20 L 309.10 120.75 L 298.26 130.78 L 289.43 141.18 L 281.56 153.41 L 274.39 168.97 L 268.62 185.58 L 259.53 219.48 L 249.65 262.16 L 243.09 302.36 L 231.82 345.23 L 224.56 377.50 L 218.27 399.84 L 216.17 416.07 L 215.73 438.13 L 216.95 464.29 L 219.84 483.86 L 224.73 506.68 L 233.22 539.53 L 257.96 643.60 L 270.90 696.02" fill="none" stroke="currentColor" stroke-width="2"/>
</svg>