<svg xmlns="http://www.w3.org/2000/svg" viewBox="0 0 1000 1000">
  <path d="M 444.98 285.82 L 642.47 287.20 L 669.58 290.44 L 690.20 300.26 L 708.61 320.16 L 719.44 338.96 L 724.89 360.62 L 724.89 384.88 L 720.21 408.39 L 705.37 427.19 L 690.54 442.74 L 670.26 450.33 L 659.43 451.44 L 550.59 448.48 L 531.75 455.52 L 520.58 466.44 L 512.23 478.66 L 508.65 494.21 L 508.31 625.12 L 513.34 640.86 L 521.27 652.43 L 531.41 662.52 L 549.14 671.97 L 565.08 675.58 L 583.83 676.69 L 597.64 675.58 L 620.05 663.27 L 744.75 576.15 L 795.55 524.21 L 806.80 512.64 L 808.59 503.19 L 808.25 360.16 L 814.73 345.34 L 833.14 335.99 L 857.01 333.40 L 885.22 345.07 L 903.72 351.64 L 923.24 353.03 L 938.75 340.72 L 950.00 318.31 L 949.23 295.54 L 936.96 276.00 L 919.57 261.93 L 904.40 255.73 L 761.20 225.73 L 368.18 218.51 L 120.15 225.73 L 96.62 234.06 L 77.10 247.12 L 63.38 264.80 L 55.37 285.07 L 50.00 305.63 L 50.34 323.03 L 52.13 343.31 L 55.37 361.36 L 64.06 378.03 L 76.00 394.97 L 91.17 409.41 L 108.90 421.35 L 135.32 429.69 L 169.33 437.65 L 195.67 445.24 L 204.36 454.13 L 214.50 470.05 L 216.12 484.03 L 213.91 501.71 L 191.49 623.64 L 190.47 636.23 L 190.81 652.16 L 194.05 664.10 L 200.18 677.80 L 207.77 689.37 L 217.23 696.96 L 320.79 776.49 L 333.07 781.12 L 346.45 781.49 L 362.39 777.51 L 375.77 768.90 L 388.81 752.61 L 392.73 738.53 L 397.08 460.61 L 391.71 447.28 L 382.25 438.20 L 367.84 430.24 L 139.50 375.71 L 126.46 364.51 L 118.53 349.33 L 115.21 333.40 L 120.66 315.72 L 128.25 301.92 L 141.63 291.09 L 161.49 284.98 L 444.98 285.82" fill="none" stroke="currentColor" stroke-width="2"/>
</svg>