<svg xmlns="http://www.w3.org/2000/svg" viewBox="0 0 1000 1000">
  <path d="M 598.74 701.69 L 609.79 753.12 L 618.03 791.02 L 622.60 819.06 L 623.22 842.19 L 616.09 904.21 L 617.40 911.63 L 622.38 916.27 L 640.79 924.42 L 644.45 927.13 L 646.20 932.51 L 645.54 937.94 L 642.95 943.37 L 637.97 947.55 L 631.68 950.00 L 623.44 950.00 L 614.37 948.02 L 592.71 941.91 L 577.96 936.95 L 563.91 929.32 L 550.48 920.45 L 519.49 893.87 L 501.08 876.64 L 497.60 871.27 L 496.76 866.83 L 496.98 862.39 L 500.20 852.52 L 501.30 846.41 L 500.64 841.45 L 498.48 837.28 L 463.17 794.20 L 456.91 788.83 L 444.98 780.42 L 437.85 774.52 L 430.05 764.18 L 425.70 753.12 L 422.66 741.79 L 421.60 732.70 L 421.82 665.51 L 421.82 659.87 L 419.44 655.43 L 415.09 651.98 L 407.51 650.26 L 397.34 652.71 L 391.49 653.45 L 384.35 651.46 L 378.28 647.55 L 373.96 643.37 L 370.04 638.20 L 367.67 633.50 L 364.41 624.16 L 361.59 612.62 L 358.37 598.31 L 357.93 586.25 L 353.80 534.82 L 354.24 507.00 L 354.90 484.60 L 356.83 460.01 L 359.43 440.58 L 362.03 425.29 L 380.22 351.98 L 383.25 345.30 L 387.61 342.64 L 392.15 341.65 L 398.84 341.12 L 404.04 339.40 L 409.05 336.48 L 414.47 330.79 L 418.56 324.16 L 422.26 315.07 L 440.23 241.98 L 447.36 202.35 L 449.74 174.52 L 450.84 145.96 L 450.62 136.62 L 449.52 126.80 L 436.31 61.80 L 435.87 57.88 L 436.31 54.44 L 439.35 50.99 L 445.20 50.00 L 448.90 51.25 L 451.50 54.18 L 452.34 56.63 L 453.88 71.15 L 456.03 93.33 L 456.91 100.70 L 459.73 108.84 L 469.24 128.26 L 477.70 145.49 L 520.36 255.76 L 525.34 270.01 L 588.57 572.73 L 591.17 585.26 L 590.55 589.44 L 587.73 592.67 L 582.72 594.60 L 579.50 597.84 L 578.18 601.50 L 578.40 606.20 L 589.89 658.61 L 598.74 701.69" fill="none" stroke="currentColor" stroke-width="2"/>
</svg>