<svg xmlns="http://www.w3.org/2000/svg" viewBox="0 0 1000 1000">
  <path d="M 288.73 812.11 L 220.97 829.11 L 208.62 830.25 L 193.75 830.25 L 180.50 826.00 L 171.42 822.16 L 159.42 814.48 L 150.77 806.72 L 144.14 797.90 L 139.18 787.52 L 135.07 777.06 L 134.65 765.95 L 135.07 753.20 L 136.74 743.56 L 139.60 734.33 L 144.98 726.24 L 152.44 719.30 L 168.98 712.02 L 184.26 712.02 L 196.20 716.60 L 201.15 721.99 L 204.50 727.79 L 204.85 735.88 L 202.41 747.40 L 197.45 764.72 L 196.20 772.08 L 199.13 779.43 L 206.11 787.11 L 218.11 791.69 L 231.30 788.99 L 238.35 784.41 L 242.88 776.73 L 247.00 768.97 L 251.12 758.60 L 253.63 747.08 L 254.47 733.92 L 252.37 722.81 L 245.74 710.47 L 241.21 702.79 L 227.60 686.21 L 191.24 647.31 L 163.19 610.71 L 140.02 585.71 L 111.13 552.94 L 102.06 537.50 L 97.87 526.39 L 68.14 438.97 L 58.65 412.74 L 50.42 386.92 L 50.00 380.38 L 53.70 374.99 L 61.17 371.89 L 73.94 374.26 L 87.19 383.08 L 98.29 392.31 L 109.46 404.24 L 125.16 420.42 L 138.76 440.44 L 162.77 482.43 L 194.94 539.05 L 205.27 554.82 L 215.60 567.16 L 227.18 578.35 L 240.79 585.71 L 255.30 591.10 L 270.17 594.12 L 287.47 594.12 L 302.76 591.10 L 317.62 585.71 L 332.48 576.39 L 346.58 564.87 L 357.68 551.80 L 369.68 525.98 L 388.24 486.68 L 396.13 474.75 L 404.36 466.66 L 414.69 460.54 L 429.97 453.92 L 444.42 452.77 L 456.84 453.92 L 468.00 458.17 L 477.91 464.70 L 484.89 470.50 L 491.10 477.45 L 521.67 536.77 L 529.13 544.86 L 538.21 547.55 L 546.86 546.00 L 554.75 542.90 L 585.31 502.45 L 589.43 494.36 L 589.43 487.09 L 586.92 479.74 L 512.18 352.69 L 465.49 277.19 L 414.27 192.46 L 407.29 190.18 L 400.24 192.05 L 393.61 197.86 L 385.80 206.68 L 378.33 215.91 L 371.35 220.57 L 362.63 223.27 L 353.56 221.71 L 344.49 213.62 L 333.74 201.70 L 328.37 192.05 L 325.09 183.23 L 323.41 170.08 L 324.25 158.15 L 326.34 146.63 L 330.04 135.84 L 339.95 122.77 L 349.44 115.42 L 362.63 109.61 L 376.73 106.59 L 387.89 105.45 L 401.50 106.18 L 419.23 110.43 L 430.81 115.42 L 442.81 121.95 L 459.28 137.39 L 473.80 157.82 L 630.74 398.11 L 728.65 546.00 L 779.45 623.05 L 824.04 692.74 L 883.08 780.90 L 946.30 873.39 L 950.00 881.48 L 949.58 889.16 L 944.21 894.55 L 935.55 893.82 L 917.76 885.32 L 907.43 877.97 L 895.92 869.55 L 774.91 704.26 L 769.54 701.24 L 759.63 700.42 L 607.99 736.29 L 288.73 812.11" fill="none" stroke="currentColor" stroke-width="2"/>
</svg>