<svg xmlns="http://www.w3.org/2000/svg" viewBox="0 0 1000 1000">
  <path d="M 732.56 192.21 L 569.24 358.87 L 535.35 392.22 L 519.03 404.83 L 503.13 416.67 L 467.70 440.99 L 460.27 441.97 L 455.55 439.42 L 453.17 433.54 L 454.76 425.10 L 459.64 406.47 L 467.49 390.19 L 483.05 361.88 L 484.31 355.14 L 483.93 346.64 L 481.01 337.36 L 474.67 328.73 L 468.20 323.04 L 460.39 319.05 L 451.42 317.22 L 445.24 317.48 L 407.72 323.04 L 390.65 327.68 L 375.50 332.52 L 364.35 339.39 L 358.22 345.01 L 355.59 350.83 L 355.46 359.52 L 357.26 367.96 L 364.77 375.09 L 374.83 378.03 L 392.78 377.11 L 402.67 377.50 L 408.43 380.25 L 413.90 386.53 L 414.98 393.85 L 413.52 411.96 L 410.39 438.83 L 402.84 482.51 L 398.75 504.67 L 395.03 523.70 L 391.52 536.52 L 376.79 581.04 L 363.73 623.93 L 359.34 637.21 L 358.55 643.88 L 358.05 650.22 L 359.93 658.52 L 362.93 665.58 L 367.44 672.78 L 374.04 679.12 L 378.71 682.12 L 398.45 691.54 L 422.03 702.39 L 428.88 707.49 L 432.59 713.38 L 434.35 718.61 L 434.64 724.95 L 434.05 728.48 L 431.80 736.33 L 424.37 743.52 L 394.86 759.15 L 355.88 781.18 L 337.31 793.34 L 318.73 806.55 L 290.02 832.64 L 274.78 847.61 L 260.64 865.07 L 246.95 882.85 L 234.51 901.29 L 211.93 939.60 L 204.75 946.93 L 196.65 949.87 L 189.64 950.00 L 181.92 947.65 L 175.37 942.74 L 170.86 936.14 L 169.23 928.36 L 169.40 920.84 L 172.32 913.32 L 184.26 901.22 L 280.67 804.85 L 292.02 793.47 L 296.32 786.80 L 300.33 777.72 L 303.17 767.06 L 303.75 752.74 L 301.50 739.99 L 294.86 720.11 L 293.19 709.91 L 293.19 693.04 L 296.15 679.38 L 338.60 546.78 L 357.05 488.98 L 363.31 466.36 L 362.14 458.84 L 357.55 450.08 L 354.21 446.35 L 349.83 443.93 L 277.00 411.70 L 268.65 404.51 L 264.14 397.38 L 261.60 388.88 L 261.01 377.11 L 262.81 369.40 L 267.06 360.83 L 277.04 348.02 L 338.98 273.09 L 400.33 198.35 L 406.97 193.06 L 415.44 186.91 L 426.88 181.49 L 471.03 168.80 L 665.95 117.61 L 668.37 115.25 L 668.66 111.46 L 666.91 105.18 L 665.28 97.60 L 666.62 92.24 L 674.92 87.33 L 707.94 72.30 L 728.55 66.48 L 799.26 50.00 L 809.52 50.00 L 818.92 54.64 L 825.89 62.29 L 829.39 69.29 L 830.77 75.96 L 830.69 85.83 L 827.56 95.18 L 734.06 190.70 L 734.06 190.70 L 732.56 192.21" fill="none" stroke="currentColor" stroke-width="2"/>
</svg>