<svg xmlns="http://www.w3.org/2000/svg" viewBox="0 0 1000 1000">
  <path d="M 123.38 634.07 L 86.60 559.19 L 50.76 492.36 L 50.00 487.20 L 51.57 481.97 L 67.76 445.01 L 75.48 428.42 L 83.69 413.21 L 92.48 399.93 L 101.22 388.57 L 117.42 369.71 L 152.45 333.72 L 260.50 220.50 L 265.03 218.23 L 271.13 217.26 L 276.20 219.54 L 281.49 224.42 L 287.32 233.78 L 291.58 245.48 L 292.39 255.53 L 292.12 269.50 L 293.15 276.94 L 294.77 283.41 L 299.30 292.49 L 304.32 299.03 L 313.07 305.50 L 338.55 321.05 L 365.64 336.33 L 394.08 350.58 L 420.85 363.24 L 441.04 371.71 L 466.25 380.45 L 491.23 387.26 L 512.99 392.43 L 542.19 397.66 L 562.37 400.20 L 585.74 402.20 L 605.38 402.47 L 630.86 401.24 L 655.85 398.62 L 681.05 393.73 L 709.45 386.30 L 762.29 368.41 L 935.92 302.61 L 941.48 301.58 L 946.28 302.88 L 949.19 306.81 L 950.00 311.00 L 948.65 314.93 L 945.47 318.16 L 878.82 361.94 L 739.72 453.75 L 729.90 457.67 L 719.00 458.64 L 565.82 439.50 L 559.19 439.50 L 554.65 443.36 L 552.01 451.82 L 551.25 465.45 L 552.55 482.66 L 556.81 496.56 L 563.98 509.57 L 573.00 521.54 L 576.45 528.36 L 577.75 535.51 L 577.75 541.98 L 575.92 548.80 L 571.39 558.23 L 565.82 566.00 L 558.92 572.82 L 545.37 583.55 L 471.58 632.83 L 383.98 689.96 L 376.00 694.16 L 367.25 697.05 L 359.27 697.74 L 350.25 696.77 L 342.54 695.12 L 334.87 691.89 L 327.42 687.00 L 319.44 679.91 L 309.62 667.87 L 231.03 575.09 L 225.20 570.20 L 218.56 566.97 L 211.39 566.35 L 204.25 566.97 L 198.11 569.93 L 193.35 574.74 L 189.36 580.59 L 187.25 587.41 L 186.98 594.57 L 188.29 602.69 L 201.07 642.26 L 204.25 648.73 L 209.01 655.55 L 215.92 661.40 L 223.36 664.98 L 239.28 671.10 L 246.95 675.37 L 252.83 680.87 L 259.20 688.65 L 279.12 716.87 L 282.57 724.65 L 283.87 730.15 L 283.33 736.00 L 281.76 742.20 L 276.96 748.32 L 269.02 754.79 L 239.55 775.92 L 229.46 781.43 L 222.55 782.74 L 214.84 782.74 L 205.82 780.81 L 197.62 775.58 L 190.17 768.15 L 183.53 758.72 L 177.70 748.32 L 123.38 634.07" fill="none" stroke="currentColor" stroke-width="2"/>
</svg>