<svg xmlns="http://www.w3.org/2000/svg" viewBox="0 0 1000 1000">
  <path d="M 711.56 451.91 L 616.34 603.12 L 563.70 687.88 L 508.95 774.34 L 451.66 866.43 L 432.09 897.52 L 425.85 904.51 L 420.24 909.45 L 415.39 911.67 L 406.73 912.77 L 398.82 912.26 L 392.96 910.73 L 387.29 907.66 L 367.53 895.05 L 361.28 892.24 L 350.07 889.77 L 341.02 889.77 L 328.08 892.58 L 320.75 897.18 L 265.94 938.16 L 258.29 941.99 L 250.39 944.89 L 239.81 948.47 L 229.80 950.00 L 221.07 950.00 L 211.58 949.49 L 201.00 948.13 L 190.73 944.80 L 178.37 938.67 L 172.00 933.98 L 166.13 928.87 L 160.84 924.10 L 146.82 905.70 L 139.94 891.48 L 134.97 875.63 L 133.69 864.47 L 132.42 851.18 L 132.74 837.13 L 134.84 822.22 L 140.77 798.54 L 147.27 779.46 L 154.28 764.46 L 161.80 752.62 L 257.02 601.16 L 262.75 595.79 L 270.72 591.11 L 285.57 587.44 L 295.00 588.55 L 302.65 590.85 L 311.45 595.79 L 321.39 603.80 L 327.76 611.04 L 335.41 626.37 L 338.15 637.96 L 338.91 655.93 L 338.28 666.67 L 335.60 678.76 L 330.44 690.61 L 320.88 708.92 L 251.73 817.02 L 249.82 824.35 L 249.69 830.74 L 251.41 838.41 L 254.60 843.69 L 258.10 848.12 L 263.58 851.95 L 270.40 854.34 L 275.75 855.27 L 284.49 853.57 L 288.50 851.95 L 392.45 804.93 L 406.85 795.98 L 421.19 784.99 L 435.60 771.36 L 445.79 759.01 L 487.16 694.10 L 491.62 684.39 L 493.53 677.66 L 491.81 667.01 L 486.52 657.47 L 478.36 649.89 L 459.50 638.73 L 449.24 630.38 L 443.56 623.99 L 437.96 615.81 L 434.83 610.27 L 408.83 548.26 L 379.32 478.41 L 376.96 466.39 L 376.96 454.13 L 378.17 444.67 L 380.09 435.56 L 385.89 424.99 L 390.35 417.84 L 399.91 407.36 L 409.40 399.95 L 740.18 230.26 L 751.78 223.70 L 757.83 217.22 L 760.76 211.00 L 761.53 203.51 L 759.17 195.16 L 755.28 188.51 L 749.67 183.06 L 741.52 176.84 L 728.32 171.05 L 720.17 169.09 L 708.89 167.56 L 699.20 167.13 L 689.45 167.73 L 678.80 170.45 L 664.02 177.61 L 653.88 183.49 L 639.74 195.93 L 625.71 205.98 L 616.03 210.32 L 601.05 211.43 L 592.13 209.47 L 581.48 204.02 L 572.94 196.86 L 567.65 188.51 L 563.38 179.14 L 562.04 168.84 L 561.66 163.98 L 564.59 150.35 L 569.82 140.64 L 577.98 132.72 L 656.82 67.80 L 664.59 61.24 L 674.41 55.45 L 683.33 52.30 L 695.76 50.34 L 707.99 50.00 L 719.21 52.30 L 728.39 56.22 L 747.00 68.06 L 767.78 81.43 L 785.75 93.87 L 797.35 100.60 L 836.54 125.48 L 845.98 132.12 L 851.97 138.42 L 857.38 145.75 L 861.78 154.18 L 865.41 165.43 L 867.45 175.91 L 867.58 190.98 L 865.41 204.53 L 854.52 226.08 L 711.56 451.91" fill="none" stroke="currentColor" stroke-width="2"/>
</svg>