<svg xmlns="http://www.w3.org/2000/svg" viewBox="0 0 1000 1000">
  <path d="M 574.35 900.50 L 481.88 916.78 L 476.36 920.13 L 475.48 941.20 L 472.72 944.55 L 457.78 947.30 L 440.42 950.00 L 425.19 949.12 L 406.28 941.20 L 392.85 928.38 L 321.84 814.53 L 283.43 754.80 L 271.88 731.15 L 264.85 715.03 L 261.51 705.24 L 253.56 675.10 L 249.92 642.76 L 251.13 618.39 L 254.48 592.16 L 263.64 567.46 L 272.76 552.22 L 276.44 547.05 L 276.44 542.82 L 271.26 539.74 L 266.99 535.50 L 267.62 530.28 L 271.26 525.11 L 273.39 519.00 L 272.18 506.85 L 265.77 484.57 L 260.29 469.34 L 252.34 456.85 L 245.65 447.72 L 242.01 437.05 L 232.55 398.60 L 227.36 384.30 L 220.96 377.32 L 220.67 372.42 L 226.15 368.13 L 235.90 360.71 L 241.09 352.13 L 241.09 343.60 L 237.74 333.26 L 222.47 305.21 L 221.26 297.45 L 220.67 244.43 L 222.18 223.70 L 228.28 215.01 L 241.67 204.67 L 256.61 192.46 L 262.43 180.85 L 262.09 166.82 L 260.29 158.46 L 242.01 114.30 L 240.17 99.67 L 241.38 84.71 L 247.78 71.29 L 257.53 59.74 L 272.18 52.42 L 288.03 50.00 L 305.10 50.88 L 321.84 59.41 L 337.99 73.76 L 347.74 90.21 L 350.50 109.40 L 349.29 126.78 L 342.59 145.04 L 332.51 162.59 L 327.32 171.11 L 277.03 233.87 L 252.05 272.32 L 249.92 279.03 L 251.76 288.43 L 262.43 298.50 L 298.37 323.64 L 313.01 336.45 L 319.41 347.12 L 322.47 358.07 L 322.47 412.52 L 324.27 423.19 L 330.08 435.67 L 338.62 448.60 L 347.74 458.67 L 360.25 466.31 L 374.90 471.15 L 442.26 471.15 L 453.81 465.98 L 465.69 459.27 L 471.51 457.73 L 476.69 462.35 L 494.98 489.74 L 517.82 529.84 L 522.38 539.90 L 528.20 548.43 L 538.87 555.14 L 549.20 556.95 L 588.83 551.78 L 607.74 552.11 L 626.95 558.77 L 639.75 571.42 L 645.86 583.03 L 667.78 705.74 L 669.92 720.81 L 672.68 728.12 L 680.59 729.06 L 692.18 720.48 L 699.16 718.66 L 746.11 712.89 L 750.38 717.45 L 759.54 748.25 L 769.29 788.62 L 778.41 842.25 L 779.33 856.28 L 771.72 865.13 L 759.83 867.88 L 574.35 900.50" fill="none" stroke="currentColor" stroke-width="2"/>
</svg>