<svg xmlns="http://www.w3.org/2000/svg" viewBox="0 0 1000 1000">
  <path d="M 522.00 539.64 L 626.60 619.39 L 679.94 660.62 L 683.28 661.78 L 686.41 661.54 L 688.91 660.19 L 690.36 658.11 L 690.99 655.40 L 691.84 627.37 L 692.65 621.47 L 693.91 618.28 L 696.20 614.85 L 699.76 610.50 L 704.76 606.20 L 710.57 603.01 L 716.83 601.17 L 723.27 600.73 L 730.60 601.17 L 737.25 603.44 L 742.46 606.63 L 746.83 610.74 L 755.17 619.88 L 763.30 627.37 L 772.67 634.43 L 782.67 640.13 L 792.45 644.48 L 802.88 647.43 L 813.08 649.70 L 824.77 650.62 L 837.06 650.62 L 846.85 649.27 L 856.46 646.94 L 866.03 643.75 L 875.61 639.89 L 883.74 635.34 L 888.95 632.15 L 893.53 629.88 L 897.90 628.53 L 902.30 628.29 L 906.87 629.21 L 911.24 631.72 L 915.01 635.10 L 917.51 638.53 L 918.95 641.97 L 920.22 646.07 L 921.03 651.73 L 921.03 658.84 L 919.79 664.06 L 917.93 669.08 L 915.22 674.30 L 912.72 677.98 L 892.69 704.18 L 886.03 713.51 L 879.59 723.75 L 873.11 735.84 L 870.19 742.89 L 868.96 747.20 L 868.32 751.30 L 868.96 755.41 L 870.40 759.09 L 872.48 762.71 L 876.03 767.06 L 880.61 770.93 L 886.88 775.23 L 893.32 778.42 L 899.80 780.26 L 905.61 780.94 L 911.45 780.69 L 917.51 779.34 L 923.14 777.31 L 928.74 774.80 L 932.93 772.04 L 936.66 769.09 L 939.79 765.47 L 943.13 761.36 L 945.85 756.09 L 947.92 751.79 L 949.16 747.00 L 949.79 742.22 L 950.00 737.87 L 949.58 642.40 L 949.58 635.78 L 949.16 630.80 L 948.35 626.21 L 946.27 619.88 L 943.94 613.25 L 941.27 608.23 L 937.71 603.01 L 933.14 597.74 L 927.93 592.28 L 922.29 587.73 L 917.29 584.30 L 912.51 581.79 L 907.89 579.76 L 870.40 565.16 L 825.79 548.29 L 782.88 532.34 L 731.83 513.44 L 686.41 496.13 L 680.78 493.62 L 675.57 490.67 L 637.44 464.47 L 630.54 459.69 L 627.23 456.01 L 616.39 439.39 L 613.47 436.68 L 609.31 434.16 L 605.12 433.49 L 602.03 433.49 L 598.68 435.08 L 595.97 437.11 L 581.40 450.79 L 578.26 453.06 L 574.71 453.74 L 570.97 453.06 L 529.50 437.60 L 398.43 388.58 L 345.48 368.52 L 187.34 309.50 L 150.44 295.63 L 146.71 293.79 L 143.58 291.28 L 141.92 289.01 L 140.02 286.30 L 137.94 282.87 L 136.50 279.44 L 128.16 259.62 L 125.87 255.75 L 123.58 251.40 L 120.02 246.86 L 116.71 241.83 L 113.37 238.21 L 106.89 232.26 L 100.66 227.28 L 95.03 223.85 L 88.55 221.09 L 82.74 219.50 L 78.97 219.06 L 74.82 219.74 L 70.63 221.09 L 67.32 223.17 L 63.98 226.12 L 62.11 228.39 L 60.84 231.39 L 51.06 260.30 L 50.00 264.16 L 50.00 266.00 L 50.84 268.51 L 52.71 270.35 L 55.63 271.22 L 61.27 271.03 L 80.84 267.84 L 86.47 267.84 L 92.11 268.51 L 96.89 270.54 L 100.24 273.30 L 103.16 276.49 L 104.82 279.44 L 106.47 283.30 L 107.10 286.49 L 107.31 289.25 L 106.89 292.88 L 105.03 304.04 L 105.03 306.80 L 105.66 309.74 L 106.89 312.50 L 109.39 314.77 L 113.16 317.96 L 135.66 331.40 L 154.00 341.65 L 170.65 348.70 L 185.26 354.84 L 192.76 358.76 L 200.89 363.06 L 209.62 369.01 L 221.10 376.74 L 236.31 389.02 L 248.38 397.91 L 255.88 405.45 L 266.09 416.14 L 270.49 419.33 L 276.51 422.76 L 299.05 435.28 L 305.91 438.03 L 311.33 438.47 L 316.33 437.79 L 321.33 436.00 L 325.91 433.00 L 329.04 429.81 L 332.39 425.27 L 335.27 421.65 L 339.04 418.65 L 342.77 417.30 L 346.96 416.62 L 352.38 416.62 L 358.02 417.05 L 363.01 418.65 L 366.11 420.73 L 388.64 438.03 L 418.43 461.04 L 452.19 485.89 L 484.69 511.17 L 522.00 539.64" fill="none" stroke="currentColor" stroke-width="2"/>
</svg>