<svg xmlns="http://www.w3.org/2000/svg" viewBox="0 0 1000 1000">
  <path d="M 437.08 468.91 L 571.89 359.30 L 582.38 341.22 L 587.37 326.74 L 588.63 276.80 L 588.10 212.86 L 583.65 201.49 L 570.89 176.91 L 564.71 148.14 L 565.71 128.22 L 568.10 118.70 L 576.07 97.52 L 588.50 81.19 L 602.65 68.66 L 615.27 60.11 L 634.87 52.53 L 655.87 50.00 L 674.07 50.58 L 695.40 57.29 L 710.81 67.20 L 721.97 78.18 L 734.86 97.23 L 764.96 160.87 L 779.57 198.48 L 786.95 227.53 L 790.60 249.88 L 804.42 473.08 L 804.42 496.40 L 801.03 540.23 L 794.99 575.89 L 715.66 867.50 L 711.08 875.76 L 702.51 877.32 L 696.53 873.53 L 693.01 865.27 L 680.45 781.12 L 697.12 665.97 L 699.91 650.71 L 694.47 417.21 L 695.86 409.83 L 701.78 402.15 L 718.98 385.92 L 727.09 374.16 L 733.53 355.31 L 735.66 337.53 L 734.80 301.77 L 727.22 253.87 L 714.07 207.42 L 703.17 189.44 L 689.02 176.42 L 672.67 170.49 L 653.21 174.38 L 643.71 184.10 L 638.39 193.33 L 638.53 206.45 L 642.05 217.81 L 660.18 245.41 L 664.90 256.49 L 669.42 275.83 L 670.35 299.34 L 665.63 321.59 L 645.50 385.63 L 641.45 404.29 L 638.66 422.17 L 641.58 703.77 L 637.40 713.29 L 602.38 752.26 L 598.93 761.39 L 597.53 788.40 L 597.86 805.02 L 601.32 838.16 L 605.97 857.49 L 630.35 938.92 L 627.50 944.56 L 610.69 950.00 L 593.75 947.77 L 577.14 941.06 L 553.28 923.96 L 531.43 904.62 L 507.77 875.96 L 420.41 775.48 L 399.54 755.07 L 365.26 729.42 L 332.91 713.87 L 199.76 669.86 L 195.98 665.00 L 195.58 657.13 L 210.26 630.02 L 240.29 595.32 L 250.39 588.91 L 257.96 593.77 L 264.67 599.50 L 271.52 600.67 L 292.25 585.41 L 437.08 468.91" fill="none" stroke="currentColor" stroke-width="2"/>
</svg>