<svg xmlns="http://www.w3.org/2000/svg" viewBox="0 0 1000 1000">
  <path d="M 551.15 58.52 L 649.04 50.00 L 666.43 51.05 L 679.81 55.49 L 688.53 61.26 L 698.93 73.34 L 705.49 87.11 L 710.80 104.44 L 718.26 133.86 L 725.90 162.74 L 730.35 194.66 L 732.25 214.73 L 734.80 263.40 L 735.87 304.95 L 737.56 321.17 L 743.73 336.35 L 755.39 357.53 L 760.30 369.61 L 760.09 378.71 L 757.93 389.39 L 741.40 433.16 L 740.32 450.78 L 742.87 463.38 L 748.82 474.12 L 765.18 496.94 L 768.98 507.44 L 769.41 519.81 L 766.65 531.07 L 756.68 543.44 L 743.94 552.55 L 726.51 562.70 L 712.95 570.70 L 703.38 580.03 L 692.36 598.47 L 670.70 639.15 L 551.58 858.38 L 512.52 919.19 L 501.47 934.07 L 492.58 942.01 L 482.17 947.26 L 471.34 950.00 L 461.37 949.18 L 450.32 946.67 L 441.00 942.59 L 432.71 935.99 L 425.68 925.49 L 423.56 921.41 L 412.95 898.30 L 401.07 877.64 L 388.34 860.60 L 379.62 850.16 L 369.87 839.42 L 352.65 821.80 L 314.24 775.87 L 310.40 773.42 L 305.09 772.84 L 299.82 775.35 L 283.67 789.93 L 278.15 791.86 L 272.63 791.28 L 267.96 789.35 L 261.36 783.05 L 254.37 775.87 L 245.65 764.32 L 239.30 751.95 L 234.82 739.28 L 231.02 724.99 L 230.59 719.21 L 231.66 713.43 L 234.82 707.95 L 242.46 695.81 L 359.68 542.92 L 386.01 509.07 L 391.50 502.71 L 401.07 496.41 L 412.52 493.67 L 421.88 493.38 L 434.83 494.49 L 470.91 499.97 L 482.82 501.37 L 495.12 501.90 L 509.15 499.97 L 521.88 496.70 L 533.32 490.34 L 608.07 430.94 L 612.95 427.67 L 618.91 424.64 L 625.04 424.05 L 629.70 425.74 L 633.97 429.60 L 636.52 433.97 L 649.25 478.55 L 653.09 484.86 L 658.36 488.71 L 664.53 489.00 L 671.35 485.97 L 675.58 480.48 L 678.34 474.70 L 683.65 460.11 L 687.88 447.74 L 691.07 435.61 L 692.76 423.82 L 693.84 411.39 L 692.97 398.49 L 690.43 392.72 L 683.86 385.30 L 441.61 164.14 L 435.04 160.00 L 425.89 155.33 L 414.67 153.70 L 402.97 155.04 L 391.10 160.82 L 386.83 166.07 L 383.86 173.77 L 378.98 213.92 L 376.22 222.15 L 370.30 228.80 L 361.37 233.17 L 351.61 234.57 L 340.78 231.77 L 333.14 226.58 L 328.47 220.51 L 324.85 213.39 L 324.21 205.69 L 325.71 197.40 L 331.63 183.92 L 362.84 122.07 L 372.84 110.22 L 382.60 100.30 L 396.63 88.22 L 408.07 80.23 L 422.52 74.16 L 435.04 70.07 L 461.58 66.75 L 551.15 58.52" fill="none" stroke="currentColor" stroke-width="2"/>
</svg>