<svg xmlns="http://www.w3.org/2000/svg" viewBox="0 0 1000 1000">
  <path d="M 300.70 728.03 L 152.48 609.50 L 108.66 575.24 L 104.70 568.64 L 102.37 562.03 L 103.03 554.60 L 105.98 548.83 L 110.27 544.95 L 115.90 542.22 L 124.14 540.98 L 136.33 540.98 L 170.29 541.81 L 193.01 545.69 L 213.78 551.88 L 235.55 560.47 L 252.03 569.79 L 264.50 578.38 L 385.50 674.13 L 394.35 678.75 L 402.92 680.73 L 411.50 680.73 L 418.46 678.34 L 426.03 675.62 L 431.93 670.99 L 436.89 665.55 L 440.17 660.51 L 443.12 653.49 L 444.13 643.75 L 443.79 638.31 L 441.17 630.88 L 438.89 623.53 L 404.26 564.76 L 400.64 553.86 L 399.97 545.28 L 401.98 537.93 L 404.59 528.60 L 407.88 520.02 L 446.13 443.74 L 514.00 306.39 L 526.20 284.60 L 540.40 265.53 L 558.16 244.89 L 561.78 239.11 L 564.45 233.25 L 565.06 226.65 L 563.11 219.22 L 532.15 102.50 L 531.49 93.58 L 532.43 85.00 L 534.77 76.41 L 538.39 68.24 L 544.96 61.64 L 552.87 55.78 L 561.11 51.57 L 569.35 50.00 L 579.59 50.33 L 589.45 52.72 L 601.36 57.76 L 614.84 66.34 L 624.42 72.95 L 635.61 81.12 L 647.47 90.45 L 662.33 105.97 L 725.59 174.48 L 728.54 181.08 L 729.54 186.20 L 729.20 191.65 L 725.92 196.27 L 720.63 201.31 L 716.34 205.60 L 714.73 209.48 L 715.06 216.50 L 716.68 224.25 L 739.73 311.09 L 744.68 322.73 L 748.30 327.44 L 751.92 331.65 L 756.88 335.61 L 762.83 337.51 L 774.03 339.82 L 821.80 346.84 L 831.71 350.72 L 837.95 355.01 L 843.24 359.30 L 847.86 366.73 L 849.47 373.33 L 851.48 381.09 L 851.48 389.68 L 849.81 399.00 L 837.95 482.62 L 837.61 497.48 L 838.61 506.81 L 841.23 516.47 L 844.91 525.88 L 891.68 600.58 L 896.30 611.81 L 897.30 619.65 L 897.63 627.00 L 896.63 634.76 L 894.96 642.60 L 891.68 649.61 L 886.39 656.55 L 805.99 746.85 L 734.49 829.73 L 710.11 856.97 L 704.15 860.44 L 698.58 861.26 L 693.29 860.44 L 688.67 857.71 L 684.05 853.50 L 635.27 798.20 L 627.37 790.44 L 590.12 760.06 L 583.55 756.59 L 576.98 753.87 L 569.01 752.71 L 562.11 753.46 L 552.87 757.75 L 547.30 763.94 L 543.35 770.63 L 541.01 776.41 L 540.40 784.25 L 541.34 792.01 L 544.63 799.35 L 548.91 805.21 L 622.41 864.40 L 635.94 876.78 L 639.89 883.47 L 642.85 892.80 L 644.18 903.69 L 643.18 913.76 L 639.89 922.35 L 635.94 930.52 L 629.71 937.54 L 619.46 944.14 L 608.94 948.43 L 597.41 950.00 L 585.22 948.43 L 574.30 944.14 L 564.11 937.12 L 300.70 728.03" fill="none" stroke="currentColor" stroke-width="2"/>
</svg>