<svg xmlns="http://www.w3.org/2000/svg" viewBox="0 0 1000 1000">
  <path d="M 620.95 321.77 L 604.99 321.55 L 505.43 300.16 L 469.89 296.41 L 449.19 296.19 L 345.30 305.50 L 294.28 317.58 L 287.93 321.77 L 284.90 325.52 L 284.00 329.01 L 280.26 345.28 L 277.50 350.45 L 271.16 354.86 L 224.22 378.75 L 217.21 386.58 L 141.47 574.34 L 140.57 579.35 L 140.69 585.44 L 148.71 614.61 L 148.71 619.24 L 146.10 624.90 L 143.18 628.76 L 53.50 705.50 L 50.93 709.91 L 50.00 715.13 L 51.13 720.74 L 54.44 727.43 L 58.72 731.08 L 63.58 732.55 L 71.06 732.44 L 215.65 713.66 L 232.12 712.52 L 256.44 713.88 L 274.08 716.44 L 298.09 721.01 L 322.73 725.52 L 335.49 728.03 L 343.55 726.40 L 349.66 723.35 L 357.56 715.67 L 365.50 701.31 L 377.69 670.89 L 380.53 657.55 L 381.42 642.42 L 379.05 627.02 L 361.42 543.54 L 361.65 538.31 L 364.14 532.33 L 374.42 516.16 L 387.85 495.27 L 391.78 493.25 L 396.99 492.71 L 400.61 494.29 L 420.50 502.29 L 426.61 503.10 L 635.12 501.74 L 637.80 502.88 L 640.41 509.09 L 642.36 514.53 L 644.62 515.89 L 649.01 516.00 L 732.27 481.71 L 742.78 475.84 L 777.46 451.89 L 797.31 433.82 L 816.54 414.50 L 863.48 368.46 L 872.97 361.71 L 883.29 356.65 L 944.71 329.39 L 949.34 324.87 L 950.00 317.74 L 948.75 312.08 L 930.23 272.90 L 925.91 269.20 L 921.16 267.73 L 914.50 267.45 L 909.17 268.82 L 826.62 300.16 L 797.31 311.48 L 781.35 317.25 L 767.45 320.41 L 758.07 322.09 L 620.95 321.77" fill="none" stroke="currentColor" stroke-width="2"/>
</svg>