<svg xmlns="http://www.w3.org/2000/svg" viewBox="0 0 1000 1000">
  <path d="M 496.85 485.85 L 520.47 433.46 L 542.16 388.51 L 586.30 313.33 L 621.84 251.36 L 652.52 181.94 L 694.57 74.24 L 701.08 63.58 L 707.70 57.44 L 715.04 52.30 L 729.39 50.00 L 741.53 52.15 L 751.35 58.13 L 758.64 66.95 L 763.82 77.23 L 764.32 97.86 L 761.17 119.73 L 750.03 180.32 L 749.59 188.07 L 751.30 194.82 L 755.32 202.72 L 761.62 209.09 L 778.50 219.22 L 806.37 237.47 L 812.66 246.14 L 816.08 256.95 L 817.29 266.16 L 816.85 275.67 L 813.32 286.41 L 806.64 297.99 L 684.09 484.47 L 681.55 491.68 L 680.66 498.35 L 681.00 504.18 L 682.26 510.16 L 686.02 520.14 L 698.82 547.21 L 701.30 556.26 L 701.30 564.09 L 699.98 572.22 L 697.22 579.74 L 693.85 585.80 L 684.47 598.61 L 568.04 740.82 L 562.74 745.50 L 556.01 750.18 L 549.11 753.09 L 543.37 754.78 L 536.75 755.09 L 474.73 754.63 L 466.73 756.01 L 452.99 761.15 L 442.67 767.82 L 434.72 774.80 L 428.10 783.85 L 421.81 794.82 L 417.45 805.64 L 389.42 885.49 L 385.28 897.30 L 380.15 908.89 L 372.20 921.00 L 365.03 929.60 L 354.60 937.96 L 344.83 944.09 L 331.42 948.24 L 318.56 950.00 L 305.43 949.39 L 287.77 945.47 L 279.49 943.48 L 270.33 939.95 L 215.87 911.34 L 206.49 905.43 L 196.78 895.23 L 190.65 885.80 L 185.19 874.14 L 182.71 859.87 L 182.71 849.44 L 184.75 829.49 L 218.19 655.83 L 220.34 649.31 L 225.31 640.57 L 232.65 634.97 L 239.98 631.05 L 252.01 629.21 L 293.01 628.83 L 301.07 627.29 L 308.41 624.07 L 315.58 618.63 L 324.41 608.19 L 329.27 595.23 L 387.54 391.04 L 391.07 381.30 L 398.08 370.56 L 406.30 362.50 L 414.69 357.59 L 424.79 354.99 L 434.83 355.06 L 446.92 357.98 L 458.56 365.42 L 466.62 374.93 L 470.48 384.67 L 472.69 398.17 L 470.97 410.29 L 465.18 425.25 L 448.57 450.72 L 411.93 495.90 L 408.95 502.57 L 406.69 510.16 L 405.86 519.68 L 405.81 563.47 L 403.98 570.53 L 396.31 583.50 L 236.45 798.73 L 233.25 806.56 L 228.89 816.84 L 227.51 825.12 L 227.73 841.46 L 230.49 850.82 L 237.61 863.24 L 246.77 871.91 L 261.34 879.51 L 272.21 880.89 L 288.38 879.35 L 302.73 873.98 L 315.64 865.01 L 328.94 851.66 L 342.46 830.87 L 390.30 724.94 L 496.85 485.85" fill="none" stroke="currentColor" stroke-width="2"/>
</svg>