<svg xmlns="http://www.w3.org/2000/svg" viewBox="0 0 1000 1000">
  <path d="M 256.26 621.62 L 271.39 443.66 L 278.27 369.06 L 279.01 366.01 L 281.14 364.26 L 283.78 363.84 L 287.04 364.26 L 290.11 364.49 L 292.95 364.26 L 294.88 362.73 L 296.40 360.57 L 296.79 358.63 L 296.79 356.46 L 286.07 315.76 L 284.56 304.69 L 283.98 294.68 L 284.75 283.79 L 288.75 230.73 L 290.30 222.05 L 292.21 213.98 L 295.08 205.31 L 298.88 195.94 L 303.27 186.80 L 309.76 176.56 L 316.44 168.12 L 325.44 158.52 L 335.19 150.03 L 346.06 142.23 L 357.71 135.50 L 370.88 128.94 L 384.07 124.38 L 398.60 120.27 L 415.02 117.41 L 431.83 115.89 L 497.34 110.26 L 577.56 105.46 L 582.33 105.04 L 584.82 103.71 L 586.92 101.54 L 589.56 92.17 L 590.72 89.59 L 592.63 87.83 L 595.89 86.77 L 606.76 84.79 L 618.60 82.21 L 635.42 76.76 L 710.47 51.52 L 716.96 50.00 L 723.09 50.00 L 729.00 51.11 L 733.19 52.81 L 737.22 55.21 L 741.03 57.84 L 745.81 63.06 L 748.49 67.16 L 750.39 72.19 L 751.36 77.82 L 754.58 113.49 L 760.72 174.39 L 760.52 179.84 L 759.55 183.34 L 758.04 186.39 L 755.55 188.56 L 750.97 191.60 L 701.89 218.13 L 661.97 240.51 L 637.13 254.21 L 625.09 261.18 L 611.54 270.73 L 601.79 278.16 L 593.40 285.54 L 549.84 322.96 L 518.93 351.02 L 453.58 408.41 L 414.25 443.02 L 408.89 448.46 L 406.79 451.92 L 406.40 455.38 L 406.40 459.54 L 407.76 468.67 L 408.15 473.65 L 408.15 480.85 L 407.57 484.77 L 406.02 489.76 L 403.73 495.62 L 399.92 501.52 L 394.76 507.61 L 388.85 512.60 L 384.07 516.29 L 381.59 519.15 L 379.69 523.02 L 377.94 530.22 L 373.94 563.07 L 369.75 598.09 L 337.28 912.12 L 335.93 923.42 L 334.61 928.68 L 331.93 934.08 L 328.28 938.47 L 324.09 942.39 L 318.18 946.26 L 311.70 948.66 L 304.24 950.00 L 297.92 949.54 L 292.01 948.25 L 285.14 945.62 L 278.46 942.57 L 273.49 939.11 L 267.55 934.54 L 260.87 927.35 L 256.29 920.84 L 252.29 913.87 L 248.84 905.61 L 245.61 896.48 L 243.12 887.11 L 241.96 879.08 L 240.64 866.90 L 240.45 854.72 L 240.25 843.19 L 239.67 820.35 L 239.28 800.32 L 239.67 778.59 L 242.16 750.12 L 251.51 660.06 L 256.26 621.62" fill="none" stroke="currentColor" stroke-width="2"/>
</svg>