<svg xmlns="http://www.w3.org/2000/svg" viewBox="0 0 1000 1000">
  <path d="M 818.56 516.38 L 874.09 583.21 L 939.03 662.80 L 944.98 671.22 L 948.28 680.00 L 950.00 687.91 L 949.87 695.66 L 948.91 701.63 L 941.33 725.05 L 937.73 731.17 L 932.50 735.81 L 928.10 738.31 L 920.19 740.25 L 912.99 740.00 L 905.07 737.34 L 897.70 731.53 L 890.21 720.20 L 851.89 661.38 L 844.65 655.20 L 838.41 653.21 L 828.99 651.58 L 809.18 651.43 L 799.22 648.57 L 792.18 643.62 L 786.87 637.14 L 784.35 630.81 L 775.44 596.94 L 771.71 588.26 L 765.76 580.82 L 758.85 575.76 L 750.14 571.68 L 741.23 570.00 L 718.20 569.64 L 707.56 567.60 L 700.27 564.13 L 692.74 558.32 L 687.21 550.20 L 683.82 541.94 L 682.27 534.13 L 682.35 526.68 L 683.78 520.36 L 695.08 489.44 L 696.80 483.16 L 697.09 474.90 L 695.88 469.44 L 692.90 461.53 L 688.47 454.80 L 679.97 448.78 L 669.62 443.16 L 657.36 436.99 L 646.55 432.65 L 638.51 430.41 L 627.21 428.52 L 614.39 428.32 L 604.30 428.73 L 595.89 430.97 L 589.06 433.88 L 578.43 438.42 L 567.25 444.69 L 554.39 455.20 L 544.34 465.87 L 502.09 517.09 L 499.92 520.05 L 493.17 521.63 L 431.46 527.19 L 427.48 526.68 L 423.25 523.83 L 421.53 518.98 L 420.78 514.90 L 411.40 476.33 L 398.88 403.88 L 396.49 390.56 L 395.91 383.83 L 396.58 376.89 L 397.92 369.70 L 400.76 362.25 L 403.99 354.85 L 413.95 331.99 L 415.00 328.47 L 414.25 325.26 L 412.36 322.30 L 409.14 320.10 L 405.41 318.93 L 401.81 319.19 L 397.71 321.94 L 394.31 326.84 L 379.79 351.94 L 367.98 370.87 L 360.27 382.09 L 353.91 389.49 L 348.42 394.19 L 339.00 401.63 L 329.08 406.94 L 318.69 410.05 L 300.60 412.71 L 283.48 413.42 L 270.58 412.45 L 255.22 409.08 L 238.38 404.34 L 219.54 397.30 L 207.65 391.79 L 197.22 385.51 L 187.59 378.32 L 177.42 369.19 L 166.91 357.55 L 159.96 347.40 L 153.72 336.28 L 138.31 295.26 L 130.06 277.30 L 125.87 270.11 L 120.18 264.80 L 112.72 261.43 L 103.81 259.75 L 93.13 260.00 L 83.25 261.43 L 73.57 263.57 L 64.15 267.45 L 56.45 273.32 L 51.80 280.77 L 50.00 288.06 L 50.54 297.25 L 52.64 304.08 L 55.69 310.97 L 60.93 316.74 L 71.27 326.43 L 84.21 337.20 L 96.85 348.27 L 112.89 360.41 L 131.23 372.91 L 149.99 384.64 L 170.97 394.64 L 189.73 404.24 L 208.99 411.58 L 240.27 422.40 L 274.69 435.82 L 316.35 450.41 L 357.68 463.47 L 386.28 473.37 L 423.25 487.50 L 431.71 489.64 L 440.12 489.90 L 449.04 488.21 L 457.71 485.82 L 473.33 479.80 L 487.69 472.60 L 499.75 465.15 L 512.23 455.46 L 535.55 433.62 L 567.50 403.83 L 576.37 396.48 L 582.70 392.04 L 588.48 388.22 L 592.58 385.77 L 594.80 385.56 L 597.73 386.79 L 604.93 393.22 L 610.12 397.55 L 614.35 398.78 L 618.33 398.01 L 623.02 394.90 L 630.72 387.91 L 639.39 381.69 L 649.06 377.60 L 660.87 376.58 L 671.89 377.20 L 683.53 379.59 L 695.17 384.13 L 705.05 388.88 L 717.44 397.30 L 728.58 407.65 L 740.01 420.41 L 818.56 516.38" fill="none" stroke="currentColor" stroke-width="2"/>
</svg>