<svg xmlns="http://www.w3.org/2000/svg" viewBox="0 0 1000 1000">
  <path d="M 604.13 225.85 L 602.64 216.59 L 604.72 208.26 L 610.07 196.85 L 615.13 188.83 L 630.88 168.88 L 710.90 60.18 L 716.47 52.37 L 724.72 50.00 L 734.75 52.88 L 741.73 58.64 L 746.78 67.69 L 747.83 77.87 L 748.05 86.30 L 748.87 93.19 L 753.03 101.42 L 757.86 107.69 L 766.85 120.34 L 772.94 131.55 L 775.32 138.33 L 778.36 142.34 L 783.19 143.68 L 788.76 142.04 L 792.92 137.72 L 794.19 131.55 L 791.44 126.30 L 784.38 121.16 L 763.50 94.63 L 760.53 88.25 L 760.46 82.08 L 762.09 77.35 L 764.32 72.93 L 774.13 67.89 L 789.28 63.99 L 797.53 60.90 L 806.00 57.51 L 817.74 53.39 L 830.52 52.47 L 837.28 55.86 L 839.81 66.35 L 837.43 127.64 L 827.99 190.68 L 818.19 230.78 L 807.26 259.37 L 788.54 292.07 L 766.99 319.73 L 735.79 353.77 L 691.13 381.12 L 664.54 394.18 L 613.27 418.14 L 578.79 430.07 L 527.90 442.10 L 495.13 447.25 L 477.75 450.54 L 474.78 455.58 L 474.55 460.00 L 473.51 465.14 L 471.28 470.18 L 463.93 472.75 L 453.53 474.50 L 442.01 467.92 L 435.69 467.50 L 344.01 479.54 L 298.46 486.12 L 256.56 492.70 L 244.97 494.45 L 237.24 495.78 L 231.67 501.54 L 222.90 518.82 L 215.47 535.58 L 209.53 552.34 L 206.93 564.27 L 204.18 585.04 L 203.95 620.62 L 204.33 629.47 L 206.93 635.53 L 212.13 641.40 L 223.64 649.83 L 231.37 656.92 L 234.71 664.53 L 236.05 675.54 L 249.13 751.22 L 252.47 764.49 L 253.51 768.70 L 253.22 774.36 L 249.87 778.88 L 242.52 784.03 L 235.16 787.63 L 233.45 792.77 L 234.86 803.56 L 243.26 828.14 L 250.91 846.65 L 258.71 861.25 L 272.09 880.38 L 288.88 897.35 L 301.21 904.44 L 315.03 910.92 L 321.94 914.01 L 325.43 917.92 L 329.45 929.95 L 327.51 936.32 L 321.27 940.03 L 293.56 947.33 L 278.11 949.79 L 267.93 950.00 L 258.86 948.66 L 253.14 944.34 L 249.65 940.74 L 249.50 932.31 L 248.16 925.53 L 245.49 917.20 L 229.89 897.97 L 218.44 879.56 L 209.53 865.78 L 200.09 839.66 L 179.21 766.96 L 173.49 743.51 L 169.48 718.42 L 164.28 681.81 L 160.19 634.20 L 160.19 603.14 L 161.53 579.39 L 164.13 554.71 L 168.74 537.53 L 173.94 522.11 L 176.46 512.65 L 177.73 504.32 L 177.13 491.67 L 176.91 483.86 L 179.44 479.23 L 185.90 476.14 L 201.65 472.34 L 215.69 471.72 L 234.94 469.36 L 261.76 465.96 L 285.54 461.75 L 346.01 443.96 L 379.82 434.70 L 410.80 429.66 L 432.05 427.91 L 448.62 421.95 L 496.55 399.22 L 517.57 390.59 L 548.26 383.70 L 573.89 380.10 L 598.34 375.98 L 612.08 371.15 L 628.80 360.66 L 643.29 345.54 L 651.46 332.79 L 655.10 319.42 L 654.51 305.44 L 652.13 292.28 L 646.93 277.78 L 640.02 264.00 L 629.17 255.56 L 618.77 245.80 L 613.72 241.37 L 609.03 236.64 L 604.13 225.85" fill="none" stroke="currentColor" stroke-width="2"/>
</svg>