<svg xmlns="http://www.w3.org/2000/svg" viewBox="0 0 1000 1000">
  <path d="M 214.36 187.90 L 437.68 218.91 L 510.11 228.41 L 586.40 235.28 L 623.17 239.86 L 718.05 253.25 L 883.39 277.81 L 917.48 284.67 L 923.30 286.96 L 926.38 289.60 L 927.95 293.83 L 928.34 297.72 L 922.13 338.64 L 922.91 342.25 L 924.87 345.51 L 942.28 354.95 L 947.32 357.58 L 950.00 361.81 L 950.00 365.77 L 946.53 391.30 L 941.10 414.19 L 932.60 436.39 L 922.91 456.37 L 847.01 585.19 L 756.00 728.09 L 750.17 737.87 L 749.39 743.77 L 750.57 748.69 L 753.32 752.30 L 780.40 768.95 L 783.09 771.59 L 783.48 775.82 L 781.58 779.42 L 776.94 783.66 L 726.16 821.95 L 721.12 824.24 L 716.87 824.86 L 713.01 823.54 L 703.72 817.65 L 702.15 813.76 L 702.15 805.92 L 725.38 624.73 L 725.05 619.18 L 722.69 613.98 L 719.23 609.67 L 713.79 605.79 L 686.71 589.07 L 677.02 580.26 L 671.20 574.37 L 665.38 563.27 L 659.16 546.89 L 653.01 537.11 L 646.01 530.25 L 638.29 525.32 L 627.82 520.74 L 544.13 507.98 L 534.84 505.06 L 529.08 500.14 L 526.34 496.88 L 524.05 492.30 L 513.18 458.66 L 509.72 452.06 L 504.29 445.89 L 490.74 437.71 L 428.78 404.34 L 410.92 396.85 L 385.01 390.60 L 177.39 360.50 L 173.14 358.90 L 170.85 356.26 L 168.89 352.03 L 168.50 346.48 L 165.03 293.14 L 160.77 256.23 L 159.20 252.00 L 156.13 249.02 L 151.88 247.08 L 146.44 247.70 L 140.62 252.97 L 133.23 264.07 L 128.97 267.33 L 123.94 269.27 L 118.18 269.00 L 111.57 266.01 L 103.85 262.41 L 96.46 260.12 L 61.25 256.23 L 55.43 254.29 L 52.68 252.00 L 50.39 247.70 L 50.00 243.47 L 52.29 233.34 L 57.33 219.95 L 63.94 208.78 L 73.62 195.39 L 84.87 186.24 L 99.20 179.02 L 112.36 175.48 L 125.11 175.14 L 143.70 177.43 L 214.36 187.90" fill="none" stroke="currentColor" stroke-width="2"/>
</svg>