<svg xmlns="http://www.w3.org/2000/svg" viewBox="0 0 1000 1000">
  <path d="M 313.50 530.10 L 81.01 549.24 L 70.33 548.38 L 60.68 543.55 L 54.05 536.57 L 50.43 527.08 L 50.00 516.39 L 53.88 505.17 L 62.92 496.72 L 75.15 492.84 L 89.45 495.69 L 115.98 505.17 L 124.86 503.71 L 132.35 496.29 L 134.76 487.24 L 132.35 475.34 L 124.43 463.26 L 106.34 441.10 L 98.67 427.56 L 93.67 411.52 L 91.26 395.39 L 91.26 377.11 L 95.65 332.09 L 102.72 310.96 L 113.83 289.40 L 125.03 275.51 L 142.26 259.91 L 160.35 248.00 L 179.30 241.02 L 285.77 206.26 L 365.45 174.87 L 418.77 151.76 L 453.14 136.15 L 465.03 131.32 L 473.90 131.66 L 481.57 136.49 L 484.32 146.15 L 499.14 228.86 L 508.18 271.46 L 520.93 323.12 L 530.24 343.04 L 540.66 357.27 L 558.58 371.59 L 576.32 381.07 L 593.98 385.47 L 611.29 386.25 L 631.02 383.23 L 651.18 375.38 L 665.48 365.12 L 693.39 335.19 L 707.08 326.91 L 728.62 319.50 L 746.97 318.89 L 765.06 321.31 L 779.70 327.35 L 792.79 337.78 L 949.14 516.13 L 950.00 524.84 L 946.38 534.76 L 919.76 594.52 L 911.75 600.13 L 902.28 602.37 L 759.54 610.65 L 625.51 626.34 L 552.03 638.42 L 545.05 644.11 L 542.81 653.51 L 549.01 664.03 L 601.39 693.01 L 612.84 704.56 L 620.86 721.64 L 624.90 739.40 L 624.30 764.76 L 620.86 786.06 L 616.12 806.85 L 603.63 833.41 L 584.93 860.57 L 574.68 867.04 L 564.86 868.68 L 553.75 866.61 L 544.88 860.83 L 381.13 725.87 L 369.67 721.64 L 354.94 720.78 L 338.83 724.83 L 279.13 755.45 L 263.20 760.45 L 244.25 763.03 L 227.62 762.86 L 196.61 757.26 L 175.51 748.55 L 161.81 737.68 L 143.46 713.53 L 137.00 695.42 L 136.05 684.38 L 143.72 671.96 L 160.17 665.15 L 809.59 545.71 L 818.89 537.51 L 825.70 521.82 L 822.25 508.71 L 810.45 496.46 L 791.07 493.45 L 313.50 530.10" fill="none" stroke="currentColor" stroke-width="2"/>
</svg>