<svg xmlns="http://www.w3.org/2000/svg" viewBox="0 0 1000 1000">
  <path d="M 159.93 466.94 L 260.81 223.07 L 299.15 133.58 L 307.83 123.69 L 319.58 118.13 L 332.40 116.48 L 344.28 118.95 L 355.47 126.58 L 363.26 136.15 L 367.41 148.10 L 367.72 161.38 L 356.60 187.23 L 324.61 265.09 L 314.30 301.34 L 310.15 339.14 L 312.35 374.56 L 309.02 388.98 L 301.16 398.66 L 285.45 411.43 L 268.54 418.13 L 221.84 436.36 L 209.84 445.42 L 206.57 458.81 L 206.13 470.86 L 210.97 483.11 L 220.02 491.86 L 231.33 496.50 L 248.68 496.09 L 334.22 468.80 L 373.95 461.38 L 408.20 460.25 L 438.50 462.51 L 467.16 467.35 L 487.59 473.64 L 521.02 480.74 L 551.89 483.42 L 573.76 478.89 L 600.09 471.99 L 631.77 456.03 L 668.98 431.72 L 694.19 419.77 L 716.62 413.29 L 746.23 409.99 L 769.55 410.51 L 866.78 416.48 L 889.22 421.63 L 910.03 432.03 L 924.80 444.70 L 934.29 458.19 L 943.53 473.64 L 948.43 491.45 L 950.00 510.30 L 948.24 528.73 L 942.83 547.48 L 931.14 567.87 L 886.46 628.83 L 869.99 655.92 L 832.65 736.56 L 814.74 742.84 L 792.61 745.41 L 771.43 744.38 L 746.48 740.16 L 720.58 731.31 L 692.87 718.02 L 665.40 698.45 L 648.43 679.61 L 645.35 668.07 L 648.05 655.92 L 658.61 640.68 L 673.70 631.00 L 695.88 622.86 L 733.78 616.89 L 770.30 607.72 L 803.61 594.95 L 822.03 581.98 L 829.01 566.43 L 829.95 549.43 L 823.98 532.54 L 808.58 517.20 L 794.75 512.36 L 722.91 503.60 L 650.57 503.81 L 573.70 513.08 L 508.71 529.45 L 468.48 542.12 L 424.10 558.60 L 381.68 576.62 L 347.11 597.12 L 334.41 602.57 L 325.36 600.82 L 316.88 589.08 L 307.83 571.99 L 295.38 564.26 L 279.42 563.64 L 263.83 570.96 L 255.53 582.18 L 251.70 594.23 L 255.53 618.74 L 290.35 822.04 L 291.11 835.63 L 287.27 849.53 L 281.11 861.27 L 275.14 868.79 L 260.37 878.78 L 244.59 882.38 L 177.72 883.52 L 164.08 882.80 L 144.22 879.71 L 123.66 873.01 L 106.76 865.29 L 84.26 847.58 L 69.61 828.01 L 59.62 811.22 L 52.33 788.56 L 50.00 768.69 L 52.07 736.25 L 58.23 713.18 L 154.71 479.09 L 159.93 466.94" fill="none" stroke="currentColor" stroke-width="2"/>
</svg>