<svg xmlns="http://www.w3.org/2000/svg" viewBox="0 0 1000 1000">
  <path d="M 551.24 629.43 L 409.47 941.90 L 403.58 947.70 L 393.46 950.00 L 384.62 947.97 L 376.29 941.44 L 347.64 894.56 L 295.50 848.52 L 253.48 814.81 L 244.86 804.13 L 241.85 794.28 L 243.14 780.37 L 264.11 709.64 L 291.19 632.20 L 298.08 623.36 L 308.93 618.57 L 322.36 620.04 L 333.99 626.85 L 342.11 638.55 L 344.62 652.92 L 341.82 679.07 L 320.85 766.37 L 321.85 777.51 L 323.65 786.91 L 331.19 797.50 L 342.25 803.39 L 351.59 805.33 L 365.52 803.58 L 376.44 796.30 L 384.26 785.34 L 387.78 774.48 L 426.57 584.49 L 430.08 576.11 L 436.91 567.27 L 672.11 269.36 L 676.93 257.94 L 676.93 248.82 L 674.41 238.97 L 666.80 227.83 L 659.19 221.75 L 645.76 216.41 L 631.82 213.92 L 617.68 213.92 L 606.04 216.41 L 592.83 222.21 L 582.48 229.85 L 408.97 446.17 L 400.35 451.24 L 388.14 454.00 L 378.81 453.26 L 368.39 450.23 L 360.85 444.70 L 352.45 435.77 L 346.63 423.43 L 342.61 409.71 L 322.07 236.76 L 322.36 225.89 L 324.37 215.21 L 328.68 203.88 L 339.59 192.46 L 355.75 181.78 L 402.86 163.82 L 461.33 147.62 L 487.68 148.35 L 536.52 163.09 L 550.60 163.46 L 562.23 158.11 L 571.85 143.93 L 590.31 92.55 L 601.44 77.35 L 618.97 63.17 L 636.13 54.05 L 661.70 50.00 L 682.74 53.32 L 706.52 62.43 L 725.55 76.34 L 740.70 93.84 L 750.61 110.50 L 756.64 133.80 L 758.15 152.59 L 755.42 174.87 L 747.52 196.15 L 551.24 629.43" fill="none" stroke="currentColor" stroke-width="2"/>
</svg>