<svg xmlns="http://www.w3.org/2000/svg" viewBox="0 0 1000 1000">
  <path d="M 321.20 427.80 L 252.01 190.34 L 236.45 133.79 L 235.90 126.70 L 239.54 120.13 L 246.77 112.87 L 255.93 107.07 L 299.65 74.47 L 330.29 53.03 L 340.68 50.00 L 348.81 50.52 L 447.40 74.56 L 452.77 79.49 L 454.97 84.93 L 455.59 90.04 L 453.94 96.26 L 448.09 102.23 L 391.91 135.35 L 383.37 142.44 L 376.28 152.73 L 374.01 158.95 L 371.25 169.33 L 372.35 185.93 L 480.03 562.43 L 485.61 579.29 L 492.63 585.26 L 500.28 585.43 L 507.71 581.28 L 512.12 574.11 L 513.29 559.58 L 524.99 449.07 L 526.58 427.02 L 523.68 401.51 L 518.45 383.78 L 511.36 367.78 L 456.76 264.02 L 453.94 252.52 L 455.25 239.98 L 459.17 229.00 L 468.67 215.85 L 510.60 166.05 L 516.80 163.54 L 523.82 162.41 L 534.42 164.49 L 542.96 170.37 L 547.16 177.63 L 580.21 405.31 L 582.27 415.52 L 587.58 428.23 L 592.67 438.26 L 604.38 451.06 L 621.04 462.64 L 732.37 519.89 L 741.73 528.80 L 752.54 544.27 L 762.59 570.39 L 764.10 581.11 L 762.31 589.76 L 758.60 595.64 L 751.64 601.95 L 632.47 638.36 L 624.75 642.51 L 613.74 651.59 L 601.97 664.56 L 593.36 680.55 L 589.23 698.97 L 574.91 794.35 L 576.08 803.26 L 580.83 809.92 L 588.61 817.52 L 600.11 819.00 L 609.47 817.09 L 613.67 813.81 L 687.75 724.14 L 698.42 718.69 L 709.78 716.27 L 724.24 719.73 L 736.08 730.27 L 744.62 742.12 L 748.06 750.60 L 751.57 767.98 L 751.23 777.92 L 749.03 789.42 L 743.66 800.92 L 728.79 821.50 L 653.95 911.61 L 637.77 925.27 L 623.38 934.87 L 611.88 940.40 L 593.98 946.71 L 577.11 949.91 L 555.84 950.00 L 539.18 947.41 L 522.38 942.91 L 505.78 935.13 L 489.19 925.53 L 475.56 912.38 L 464.20 899.24 L 452.08 881.43 L 323.40 435.49 L 321.20 427.80" fill="none" stroke="currentColor" stroke-width="2"/>
</svg>