<svg xmlns="http://www.w3.org/2000/svg" viewBox="0 0 1000 1000">
  <path d="M 252.61 594.74 L 158.29 422.06 L 121.28 355.04 L 118.83 342.50 L 120.42 329.49 L 125.13 319.39 L 132.53 312.00 L 143.91 305.29 L 156.94 303.26 L 169.24 305.50 L 263.38 362.63 L 272.37 365.14 L 284.24 365.54 L 297.88 361.54 L 308.89 351.24 L 315.20 339.99 L 316.72 328.61 L 314.58 246.54 L 315.93 235.35 L 319.29 225.73 L 323.82 216.51 L 330.31 208.92 L 464.58 60.10 L 471.98 54.07 L 483.42 50.88 L 494.43 50.00 L 505.63 52.91 L 514.38 58.06 L 554.26 96.15 L 558.73 104.22 L 560.75 115.26 L 560.32 124.89 L 557.63 134.31 L 551.81 142.78 L 464.58 238.61 L 460.79 245.59 L 460.54 253.18 L 462.56 259.89 L 466.84 264.83 L 473.14 268.83 L 481.83 269.98 L 487.89 268.22 L 495.78 264.63 L 648.16 203.64 L 658.13 202.55 L 670.43 204.31 L 680.77 208.99 L 688.84 217.12 L 693.80 227.42 L 695.75 237.59 L 695.57 246.54 L 692.63 255.08 L 686.40 264.97 L 681.20 269.85 L 669.33 279.54 L 656.11 294.72 L 645.10 309.97 L 635.93 326.23 L 628.53 345.28 L 624.30 358.29 L 619.78 381.13 L 615.98 390.89 L 609.50 399.16 L 602.53 404.37 L 593.17 408.58 L 506.55 429.65 L 498.96 434.13 L 493.15 439.28 L 489.78 447.82 L 488.44 456.08 L 489.97 468.55 L 499.39 480.89 L 515.54 497.22 L 540.44 516.20 L 566.43 530.97 L 592.86 540.39 L 619.29 546.02 L 645.10 548.25 L 673.30 545.54 L 802.75 531.17 L 814.61 533.68 L 828.32 540.19 L 838.84 548.25 L 848.69 561.67 L 878.72 617.52 L 881.17 627.14 L 881.17 635.88 L 879.83 645.03 L 873.59 656.69 L 826.97 731.91 L 821.10 737.54 L 812.41 741.54 L 803.42 744.25 L 791.31 743.77 L 642.47 713.75 L 631.89 713.75 L 621.37 716.87 L 612.44 722.97 L 606.14 730.76 L 502.51 932.31 L 494.19 941.94 L 484.77 947.76 L 471.13 950.00 L 460.79 948.85 L 450.69 944.58 L 440.42 935.63 L 252.61 594.74" fill="none" stroke="currentColor" stroke-width="2"/>
</svg>