<svg xmlns="http://www.w3.org/2000/svg" viewBox="0 0 1000 1000">
  <path d="M 867.88 378.32 L 814.97 460.11 L 803.07 472.37 L 786.75 484.89 L 768.79 494.60 L 743.14 502.58 L 675.24 520.69 L 574.49 547.81 L 466.76 576.45 L 459.75 575.69 L 457.19 573.63 L 455.57 566.96 L 452.78 557.52 L 448.32 550.63 L 399.58 503.06 L 382.09 490.26 L 360.42 481.59 L 334.29 479.31 L 308.88 484.41 L 287.40 495.63 L 270.62 511.25 L 260.37 526.60 L 252.18 545.26 L 249.14 565.44 L 250.56 587.95 L 256.39 607.09 L 286.69 670.01 L 287.40 677.17 L 284.60 682.81 L 277.63 687.91 L 116.47 783.80 L 111.55 785.81 L 103.86 786.08 L 98.27 782.77 L 94.53 777.89 L 54.65 688.67 L 50.91 673.59 L 50.00 661.33 L 51.14 647.77 L 61.43 595.87 L 63.28 591.53 L 67.26 589.47 L 72.38 587.95 L 203.67 568.26 L 206.94 566.96 L 209.98 564.41 L 212.30 561.10 L 220.46 528.61 L 221.17 523.78 L 221.64 517.65 L 220.93 512.28 L 180.15 397.46 L 180.15 392.85 L 181.76 388.79 L 184.80 384.72 L 189.21 381.63 L 230.27 365.03 L 249.14 360.64 L 266.87 357.33 L 291.15 355.54 L 312.58 355.81 L 337.09 358.36 L 360.18 362.70 L 400.76 369.37 L 422.44 374.95 L 444.62 382.93 L 468.62 392.64 L 551.16 430.22 L 573.82 438.14 L 594.31 442.48 L 617.16 444.54 L 640.73 443.51 L 662.67 439.39 L 696.25 429.68 L 702.55 431.20 L 705.11 435.32 L 715.59 471.12 L 720.52 476.22 L 728.91 479.31 L 737.97 478.77 L 751.06 475.73 L 765.75 468.30 L 778.79 456.53 L 789.55 441.45 L 813.31 407.17 L 814.49 403.10 L 814.02 399.80 L 809.61 396.22 L 787.90 380.11 L 783.92 374.47 L 782.54 366.55 L 785.10 359.39 L 819.62 305.96 L 850.39 255.58 L 875.13 217.50 L 880.73 213.92 L 887.70 215.93 L 942.99 240.50 L 948.11 243.59 L 950.00 248.15 L 948.58 253.30 L 867.88 378.32" fill="none" stroke="currentColor" stroke-width="2"/>
</svg>