<svg xmlns="http://www.w3.org/2000/svg" viewBox="0 0 1000 1000">
  <path d="M 546.33 743.00 L 500.34 608.57 L 497.70 606.28 L 495.44 605.99 L 484.93 609.41 L 482.09 608.71 L 479.56 607.44 L 477.60 604.79 L 476.51 601.08 L 478.37 590.68 L 486.11 566.51 L 486.92 562.98 L 487.09 556.00 L 484.05 536.88 L 473.74 476.53 L 472.87 464.28 L 470.70 460.25 L 460.02 456.03 L 454.99 452.87 L 451.04 449.45 L 445.66 440.91 L 442.79 432.36 L 442.32 421.97 L 443.77 413.90 L 446.04 409.21 L 453.40 398.01 L 456.07 391.90 L 457.32 385.54 L 456.54 375.84 L 452.73 359.44 L 448.10 352.17 L 445.16 349.70 L 438.09 344.79 L 434.55 342.14 L 431.91 339.19 L 429.95 331.74 L 430.52 300.22 L 431.61 293.35 L 438.40 284.62 L 443.77 280.88 L 456.44 276.37 L 460.09 274.41 L 464.49 267.36 L 466.85 253.40 L 469.01 242.31 L 473.91 226.50 L 477.56 216.68 L 480.20 200.39 L 481.08 189.38 L 480.60 176.98 L 478.95 128.09 L 475.23 64.90 L 473.78 60.83 L 470.13 55.71 L 465.47 52.51 L 458.30 50.00 L 451.10 51.13 L 446.34 53.60 L 441.47 56.91 L 437.45 64.50 L 435.46 74.94 L 435.93 84.32 L 437.79 91.88 L 448.57 110.75 L 454.35 119.65 L 459.15 132.63 L 461.00 140.81 L 462.36 152.26 L 461.98 161.13 L 460.90 171.46 L 457.32 182.29 L 453.17 191.49 L 447.49 202.50 L 442.86 213.08 L 440.83 224.68 L 440.97 232.60 L 440.97 238.71 L 438.77 243.33 L 435.46 247.29 L 430.25 250.23 L 419.04 253.54 L 411.13 260.23 L 407.45 266.27 L 406.09 271.39 L 404.27 281.61 L 403.80 293.28 L 403.80 301.20 L 404.54 310.07 L 405.96 319.52 L 409.88 331.34 L 420.02 353.11 L 426.88 369.80 L 430.46 383.98 L 432.01 396.63 L 431.50 408.81 L 430.80 416.26 L 430.93 432.26 L 431.84 436.80 L 432.89 444.14 L 437.22 457.30 L 441.10 465.63 L 446.37 474.53 L 454.96 488.20 L 460.73 498.56 L 465.09 509.58 L 469.66 526.19 L 471.11 538.48 L 471.82 552.29 L 471.45 564.95 L 469.99 576.47 L 467.29 591.85 L 465.63 597.19 L 464.11 602.06 L 464.45 606.46 L 465.70 610.93 L 469.05 615.84 L 472.66 619.08 L 481.21 626.06 L 485.44 631.25 L 489.36 638.42 L 495.07 664.74 L 495.13 671.53 L 492.57 679.39 L 487.02 689.78 L 468.74 725.52 L 464.32 736.53 L 460.77 749.29 L 459.45 758.31 L 458.91 766.45 L 460.50 785.10 L 465.26 803.64 L 468.37 814.95 L 471.51 825.82 L 475.60 839.30 L 481.89 853.63 L 491.11 870.57 L 497.63 879.84 L 505.81 890.53 L 517.27 903.72 L 532.10 916.92 L 546.02 926.30 L 575.15 946.66 L 583.19 950.00 L 588.53 948.51 L 593.23 945.53 L 596.20 940.37 L 595.93 934.91 L 588.30 900.85 L 573.67 830.47 L 566.06 803.50 L 559.00 781.21 L 546.33 743.00" fill="none" stroke="currentColor" stroke-width="2"/>
</svg>