<svg xmlns="http://www.w3.org/2000/svg" viewBox="0 0 1000 1000">
  <path d="M 930.34 430.32 L 948.25 567.16 L 950.00 584.86 L 948.25 593.61 L 943.42 601.24 L 921.24 635.12 L 917.25 640.65 L 913.05 642.68 L 907.74 643.31 L 895.56 642.68 L 839.37 639.60 L 752.74 630.36 L 741.76 627.49 L 734.83 623.29 L 729.37 617.34 L 724.83 605.44 L 724.20 593.68 L 724.55 586.68 L 722.31 583.04 L 710.20 582.20 L 697.68 581.92 L 633.79 578.29 L 453.89 568.70 L 432.13 566.11 L 416.87 561.98 L 401.20 554.21 L 337.38 498.15 L 310.09 474.84 L 305.54 471.20 L 299.04 470.15 L 290.92 471.62 L 284.83 475.68 L 280.84 479.60 L 269.30 514.73 L 263.21 541.05 L 247.96 620.70 L 216.54 780.98 L 214.79 784.34 L 212.48 787.28 L 208.14 790.43 L 202.96 791.62 L 196.59 791.48 L 193.66 790.29 L 186.31 780.98 L 178.96 770.55 L 173.50 758.72 L 167.63 752.91 L 139.92 730.73 L 126.13 717.99 L 117.52 709.66 L 112.21 702.17 L 106.82 683.90 L 107.59 675.36 L 109.13 668.85 L 112.91 661.30 L 110.95 656.54 L 103.95 654.16 L 91.07 649.75 L 80.02 642.68 L 66.44 633.16 L 55.95 623.92 L 52.17 616.15 L 50.42 605.23 L 50.00 595.64 L 60.64 577.52 L 103.53 500.73 L 158.74 401.56 L 168.54 383.64 L 177.70 375.17 L 181.48 372.09 L 194.08 369.57 L 205.20 376.43 L 219.27 386.23 L 277.13 446.91 L 282.31 449.57 L 286.58 448.52 L 290.57 440.96 L 313.38 396.31 L 343.89 344.65 L 349.49 336.33 L 354.87 334.37 L 364.60 338.70 L 370.20 341.99 L 532.54 435.92 L 559.06 446.07 L 577.46 449.50 L 806.41 463.01 L 815.30 461.26 L 826.85 455.87 L 836.36 449.15 L 842.45 438.02 L 843.99 427.45 L 842.24 402.33 L 835.66 368.17 L 815.79 313.02 L 810.40 301.26 L 806.76 291.53 L 804.80 279.63 L 804.80 264.37 L 808.16 230.43 L 813.97 217.06 L 821.95 209.01 L 828.67 208.38 L 834.75 209.99 L 841.47 217.76 L 845.11 222.52 L 848.61 227.35 L 854.91 232.67 L 869.39 239.81 L 881.57 243.17 L 896.82 241.70 L 904.66 244.85 L 908.65 250.45 L 910.95 259.40 L 917.11 334.72 L 930.34 430.32" fill="none" stroke="currentColor" stroke-width="2"/>
</svg>