<svg xmlns="http://www.w3.org/2000/svg" viewBox="0 0 1000 1000">
  <path d="M 367.09 845.51 L 506.16 814.68 L 517.07 809.68 L 522.14 799.82 L 520.75 791.73 L 511.74 754.47 L 506.42 734.87 L 506.42 720.28 L 510.09 699.39 L 522.71 676.99 L 543.46 657.05 L 585.36 632.25 L 609.58 622.18 L 639.74 612.11 L 694.94 601.63 L 730.23 599.99 L 749.94 599.78 L 777.98 603.82 L 790.19 602.11 L 803.43 596.15 L 816.06 583.54 L 822.47 568.75 L 825.26 554.29 L 819.26 508.53 L 820.76 499.28 L 827.18 493.32 L 837.01 493.32 L 866.76 496.95 L 893.09 496.95 L 907.21 493.32 L 913.42 486.06 L 914.82 477.36 L 907.52 437.08 L 902.82 428.10 L 893.61 421.05 L 667.21 305.89 L 652.88 294.99 L 647.76 284.72 L 648.17 274.65 L 650.97 265.95 L 657.38 259.10 L 676.42 247.52 L 692.72 243.68 L 706.58 242.79 L 775.70 255.47 L 832.87 268.89 L 861.74 277.25 L 875.86 280.27 L 884.86 277.94 L 929.98 253.07 L 935.57 245.40 L 950.00 201.76 L 949.79 190.86 L 945.71 181.00 L 928.37 151.54 L 913.01 133.80 L 889.47 110.99 L 878.55 106.05 L 862.26 104.75 L 840.01 107.56 L 553.18 192.85 L 536.47 202.03 L 530.73 209.57 L 531.56 219.57 L 542.06 236.49 L 549.10 250.81 L 549.10 266.91 L 457.73 550.25 L 446.40 564.77 L 428.55 581.42 L 58.38 782.14 L 51.50 789.41 L 50.00 799.27 L 51.71 808.45 L 59.42 818.11 L 67.54 821.12 L 92.16 819.14 L 98.99 822.15 L 102.46 827.29 L 101.58 838.87 L 94.54 881.55 L 95.58 889.70 L 101.37 895.25 L 109.70 895.25 L 367.09 845.51" fill="none" stroke="currentColor" stroke-width="2"/>
</svg>