<svg xmlns="http://www.w3.org/2000/svg" viewBox="0 0 1000 1000">
  <path d="M 327.24 234.48 L 338.40 64.81 L 341.48 57.69 L 348.72 51.71 L 359.21 50.00 L 369.06 50.40 L 488.67 72.79 L 504.21 79.74 L 517.56 88.34 L 529.78 101.67 L 539.08 116.94 L 544.77 130.73 L 548.52 144.57 L 549.99 154.72 L 553.32 186.56 L 557.23 199.04 L 562.63 211.23 L 572.23 225.93 L 583.85 238.41 L 622.22 269.97 L 637.46 287.80 L 648.50 303.81 L 656.79 320.22 L 666.65 348.25 L 670.15 371.21 L 671.62 391.84 L 684.97 790.59 L 684.09 800.73 L 681.05 811.33 L 676.84 820.22 L 670.44 829.22 L 662.73 836.79 L 651.11 844.20 L 638.35 848.53 L 626.43 849.84 L 613.04 849.27 L 600.70 845.51 L 588.48 838.39 L 577.87 828.93 L 493.01 725.64 L 482.86 719.83 L 474.44 717.49 L 462.05 717.61 L 447.82 722.85 L 439.86 729.57 L 433.58 738.57 L 430.68 745.52 L 429.25 761.53 L 437.21 920.37 L 435.35 928.75 L 431.14 937.47 L 426.47 942.42 L 419.22 947.21 L 409.20 950.00 L 398.71 949.54 L 388.98 945.50 L 381.28 939.23 L 375.17 930.23 L 370.66 921.51 L 369.23 910.92 L 346.11 636.71 L 348.13 627.70 L 353.40 621.15 L 361.53 615.74 L 369.82 614.43 L 381.45 615.63 L 394.38 619.67 L 488.50 664.28 L 498.27 665.02 L 505.94 663.60 L 514.95 657.62 L 521.94 649.75 L 526.87 639.04 L 527.16 629.58 L 493.30 483.22 L 487.66 473.82 L 480.84 465.96 L 471.53 459.12 L 461.51 455.93 L 455.23 454.34 L 343.50 447.33 L 331.58 441.12 L 323.28 431.95 L 316.76 419.87 L 315.03 406.08 L 327.24 234.48" fill="none" stroke="currentColor" stroke-width="2"/>
</svg>