<svg xmlns="http://www.w3.org/2000/svg" viewBox="0 0 1000 1000">
  <path d="M 294.08 604.48 L 289.91 205.57 L 291.55 199.46 L 294.55 196.37 L 299.51 194.86 L 311.05 194.59 L 328.88 194.66 L 335.89 193.70 L 342.32 191.23 L 347.54 188.28 L 352.87 182.24 L 356.29 174.69 L 357.14 167.55 L 356.72 159.87 L 354.71 137.98 L 354.71 130.36 L 355.56 123.02 L 359.04 109.91 L 366.00 95.36 L 374.12 84.38 L 380.28 78.41 L 390.09 71.07 L 408.60 61.73 L 430.95 51.51 L 436.49 50.00 L 443.61 50.41 L 449.09 52.47 L 459.37 59.47 L 466.91 68.80 L 469.29 73.19 L 472.03 80.67 L 472.82 87.33 L 473.35 106.48 L 473.45 134.68 L 474.03 156.09 L 473.45 161.79 L 471.24 169.27 L 467.18 177.23 L 461.06 183.82 L 386.40 237.48 L 378.97 245.65 L 374.64 256.21 L 374.22 261.84 L 375.49 271.17 L 377.60 277.56 L 384.08 286.07 L 389.99 291.56 L 396.16 295.33 L 404.38 298.42 L 412.34 299.31 L 420.67 298.97 L 431.22 295.95 L 456.53 278.59 L 462.33 275.57 L 467.86 274.54 L 473.35 274.88 L 481.57 278.79 L 488.58 285.59 L 495.18 297.46 L 497.44 304.25 L 498.13 310.77 L 501.61 631.93 L 502.72 639.75 L 503.56 641.61 L 506.25 647.58 L 511.36 654.30 L 518.59 660.68 L 522.38 662.88 L 531.29 666.38 L 538.15 667.75 L 543.79 668.44 L 565.88 667.13 L 575.74 666.79 L 583.12 667.82 L 591.35 671.46 L 595.94 674.54 L 600.47 679.21 L 603.05 683.40 L 605.48 689.57 L 607.22 696.02 L 610.01 702.13 L 613.02 706.66 L 617.55 710.37 L 622.83 712.97 L 627.94 714.62 L 632.90 715.31 L 641.39 715.44 L 686.41 712.36 L 692.32 714.00 L 697.86 717.91 L 700.55 721.89 L 702.97 726.70 L 707.77 742.83 L 710.09 758.27 L 709.98 767.05 L 709.30 775.15 L 703.92 810.56 L 697.07 856.74 L 693.95 866.83 L 690.05 878.01 L 680.72 892.70 L 670.49 906.15 L 660.42 915.76 L 643.07 927.29 L 623.88 935.73 L 609.64 939.71 L 591.45 942.45 L 542.58 946.29 L 479.83 949.11 L 443.19 950.00 L 429.06 948.42 L 414.24 945.33 L 403.70 942.11 L 397.16 939.43 L 379.34 930.92 L 368.16 924.20 L 349.70 910.13 L 338.84 898.26 L 332.88 892.01 L 324.71 881.51 L 311.37 859.69 L 302.83 837.66 L 298.40 815.22 L 297.08 802.60 L 295.71 783.52 L 294.08 604.48" fill="none" stroke="currentColor" stroke-width="2"/>
</svg>