<svg xmlns="http://www.w3.org/2000/svg" viewBox="0 0 1000 1000">
  <path d="M 724.65 849.02 L 749.96 820.56 L 755.32 814.58 L 759.16 808.09 L 760.44 800.37 L 757.18 793.42 L 751.85 788.98 L 742.28 785.35 L 733.15 783.87 L 724.36 784.38 L 716.15 786.83 L 698.15 797.67 L 681.51 814.17 L 675.11 818.41 L 661.12 821.53 L 653.56 821.38 L 639.90 816.78 L 632.35 812.59 L 625.33 806.61 L 613.69 790.87 L 608.98 777.53 L 605.76 382.42 L 608.20 376.44 L 612.94 373.42 L 694.43 374.95 L 718.87 374.80 L 731.63 371.84 L 736.79 367.39 L 751.19 353.34 L 757.68 344.19 L 762.63 334.33 L 766.22 325.69 L 768.37 314.45 L 769.85 301.06 L 769.44 293.19 L 764.98 290.38 L 753.18 289.05 L 749.05 286.45 L 745.50 280.98 L 744.09 272.44 L 744.75 266.21 L 756.19 246.43 L 758.17 241.17 L 762.96 232.07 L 761.23 222.52 L 751.94 216.39 L 734.68 214.44 L 605.47 211.17 L 557.75 204.22 L 541.98 196.61 L 524.56 178.67 L 509.62 148.78 L 486.75 95.02 L 472.05 79.54 L 456.82 69.06 L 441.34 63.34 L 417.11 55.52 L 389.61 50.00 L 385.86 50.92 L 382.27 53.68 L 379.46 63.08 L 376.61 69.52 L 348.09 125.27 L 330.34 158.44 L 321.09 175.25 L 311.59 191.45 L 295.21 219.91 L 278.36 258.19 L 269.45 287.11 L 259.66 320.38 L 253.10 344.19 L 248.19 367.90 L 244.26 391.92 L 240.10 427.13 L 239.06 447.67 L 237.99 472.15 L 238.44 538.43 L 238.69 576.29 L 238.82 605.01 L 233.33 755.10 L 231.67 832.11 L 231.63 870.54 L 230.15 916.84 L 232.75 920.57 L 236.30 921.79 L 244.80 921.64 L 251.08 924.04 L 265.19 938.20 L 277.54 945.25 L 293.97 948.47 L 365.51 950.00 L 459.09 948.88 L 536.08 949.34 L 573.69 948.82 L 604.48 944.53 L 636.68 938.40 L 645.06 934.57 L 651.83 930.33 L 657.24 925.22 L 724.65 849.02" fill="none" stroke="currentColor" stroke-width="2"/>
</svg>