<svg xmlns="http://www.w3.org/2000/svg" viewBox="0 0 1000 1000">
  <path d="M 494.16 420.92 L 617.12 497.70 L 619.22 503.37 L 618.32 508.63 L 614.66 515.63 L 588.48 535.09 L 580.33 543.89 L 577.63 559.75 L 580.33 576.54 L 577.75 597.27 L 571.46 610.54 L 547.73 629.53 L 520.70 638.86 L 503.15 642.79 L 477.26 643.39 L 456.94 639.73 L 433.15 629.06 L 312.47 556.68 L 295.15 546.22 L 286.28 544.69 L 276.09 543.89 L 265.91 545.22 L 252.96 549.29 L 242.06 555.42 L 230.91 564.41 L 219.29 572.15 L 204.06 574.68 L 190.34 573.41 L 175.60 566.28 L 161.76 553.88 L 149.17 541.42 L 135.03 534.42 L 120.47 531.49 L 102.91 534.56 L 86.79 539.62 L 73.25 546.02 L 63.24 555.28 L 53.72 570.21 L 50.00 586.08 L 50.42 599.34 L 53.36 608.27 L 58.21 614.40 L 68.10 619.80 L 80.02 619.80 L 94.76 616.53 L 111.24 616.60 L 145.22 623.80 L 207.42 636.39 L 271.72 634.53 L 369.87 630.46 L 397.02 639.06 L 430.58 651.06 L 457.60 660.59 L 493.92 672.12 L 531.67 678.45 L 569.60 678.92 L 609.45 672.38 L 645.83 659.59 L 728.94 629.26 L 777.18 610.87 L 800.43 600.54 L 859.87 568.95 L 891.87 548.49 L 898.29 539.82 L 896.19 532.62 L 890.38 527.03 L 875.69 518.16 L 865.45 510.50 L 859.87 499.30 L 858.68 487.64 L 861.97 473.44 L 869.88 465.51 L 879.17 461.78 L 906.67 463.44 L 920.40 461.58 L 926.45 457.65 L 935.68 448.65 L 950.00 423.06 L 949.04 417.46 L 942.09 414.66 L 935.80 409.99 L 935.56 400.46 L 946.94 363.74 L 946.05 357.47 L 940.89 353.28 L 912.25 350.68 L 498.59 336.01 L 168.77 321.08 L 159.12 323.62 L 157.08 331.21 L 160.38 340.68 L 171.83 350.81 L 189.62 364.34 L 208.74 374.60 L 224.32 378.53 L 238.04 377.40 L 254.82 371.34 L 293.95 352.94 L 315.88 347.08 L 342.85 344.74 L 369.46 348.48 L 394.56 358.94 L 494.16 420.92" fill="none" stroke="currentColor" stroke-width="2"/>
</svg>