<svg xmlns="http://www.w3.org/2000/svg" viewBox="0 0 1000 1000">
  <path d="M 230.52 663.28 L 311.78 728.06 L 334.23 743.78 L 351.61 754.13 L 358.05 757.19 L 360.56 757.96 L 363.35 757.47 L 365.86 755.93 L 367.57 753.36 L 368.42 751.00 L 368.14 748.16 L 350.47 697.34 L 342.61 673.85 L 341.24 666.62 L 340.96 660.44 L 341.24 653.21 L 342.61 646.47 L 345.12 637.99 L 349.05 630.76 L 353.27 624.30 L 359.14 617.56 L 365.58 612.91 L 374.29 607.49 L 421.65 578.08 L 441.02 565.93 L 445.19 561.82 L 448.83 556.89 L 451.91 552.79 L 454.47 547.09 L 456.41 542.22 L 461.48 528.04 L 464.84 523.38 L 469.05 517.96 L 474.64 514.35 L 479.14 511.99 L 490.32 507.61 L 499.03 503.23 L 504.05 499.34 L 507.17 495.51 L 509.97 490.31 L 511.06 484.12 L 512.76 473.55 L 513.61 466.82 L 515.27 459.37 L 517.55 453.95 L 520.34 448.75 L 523.99 443.60 L 527.92 438.95 L 533.79 433.80 L 540.51 428.87 L 547.81 424.76 L 555.62 421.42 L 562.39 419.84 L 567.98 419.62 L 572.48 419.84 L 579.77 421.92 L 626.27 443.33 L 630.77 445.13 L 635.51 445.13 L 639.16 443.60 L 648.44 437.91 L 659.33 429.14 L 667.19 421.15 L 675.05 410.58 L 680.92 403.63 L 686.27 399.47 L 692.15 396.89 L 696.65 395.85 L 703.09 395.85 L 710.38 397.93 L 715.97 401.00 L 720.47 405.44 L 722.98 408.50 L 725.49 412.39 L 727.76 416.77 L 731.12 420.38 L 735.05 421.92 L 738.93 421.92 L 822.75 403.35 L 828.11 401.55 L 831.47 399.74 L 833.98 397.39 L 883.04 337.81 L 926.18 285.63 L 942.71 264.49 L 949.48 252.12 L 950.00 249.00 L 949.19 246.15 L 947.21 244.61 L 944.70 242.81 L 941.90 242.04 L 938.82 242.26 L 934.61 243.30 L 844.92 271.99 L 782.41 289.52 L 713.46 306.27 L 631.06 322.81 L 579.49 331.35 L 531.80 338.30 L 391.39 353.80 L 375.71 356.65 L 373.73 357.91 L 372.87 360.48 L 373.16 362.56 L 375.15 365.41 L 384.38 375.70 L 416.35 419.62 L 430.36 442.34 L 431.22 445.68 L 430.36 450.55 L 428.37 453.95 L 424.73 456.52 L 421.65 457.29 L 415.78 458.06 L 389.73 455.98 L 387.17 454.72 L 384.95 452.64 L 382.72 450.06 L 380.73 446.45 L 375.43 431.99 L 373.16 426.30 L 369.51 421.15 L 352.42 403.63 L 349.91 401.55 L 346.83 400.23 L 343.75 399.74 L 326.94 398.21 L 323.58 398.43 L 321.59 399.74 L 319.64 402.04 L 318.79 405.16 L 319.93 408.78 L 352.42 464.79 L 365.58 489.54 L 366.72 496.28 L 366.43 502.96 L 365.34 508.38 L 363.92 513.80 L 360.28 523.87 L 355.21 534.99 L 351.85 539.37 L 346.26 543.48 L 339.82 546.60 L 313.20 558.70 L 307.85 560.01 L 302.55 560.29 L 292.75 559.52 L 283.46 558.21 L 274.51 555.36 L 264.71 551.47 L 256.00 546.32 L 250.13 541.94 L 246.20 535.26 L 215.65 492.39 L 191.83 462.44 L 188.75 459.37 L 185.11 457.78 L 180.32 456.80 L 176.11 457.02 L 170.24 458.60 L 163.23 460.90 L 157.36 463.20 L 58.95 506.35 L 53.36 510.18 L 51.14 513.80 L 50.00 517.69 L 51.14 520.53 L 53.36 523.11 L 56.16 525.68 L 107.73 567.24 L 230.52 663.28" fill="none" stroke="currentColor" stroke-width="2"/>
</svg>