<svg xmlns="http://www.w3.org/2000/svg" viewBox="0 0 1000 1000">
  <path d="M 639.54 627.89 L 741.70 514.36 L 755.40 504.02 L 927.18 392.12 L 946.64 375.92 L 950.00 368.10 L 947.68 358.36 L 940.95 352.03 L 936.73 349.11 L 876.35 337.27 L 867.05 332.43 L 858.85 325.22 L 837.32 283.43 L 823.80 271.65 L 788.74 250.96 L 781.77 249.47 L 773.14 250.96 L 767.03 255.80 L 717.84 325.01 L 602.16 484.82 L 590.35 496.19 L 574.94 505.04 L 557.20 511.16 L 541.35 512.66 L 524.90 510.35 L 508.44 504.63 L 495.78 496.19 L 485.01 486.05 L 418.33 391.92 L 410.50 387.09 L 401.63 384.09 L 391.29 384.09 L 381.38 388.11 L 374.23 395.32 L 294.64 505.04 L 290.84 513.48 L 289.38 521.71 L 289.38 531.65 L 290.42 541.18 L 293.35 549.41 L 302.65 565.00 L 305.65 574.73 L 306.26 584.87 L 304.98 594.54 L 302.04 605.29 L 296.96 615.23 L 290.84 623.67 L 285.15 630.00 L 272.92 638.85 L 266.37 642.45 L 185.75 674.31 L 177.30 675.39 L 129.16 680.23 L 61.01 700.92 L 53.43 706.63 L 50.00 715.48 L 50.43 723.92 L 55.75 732.57 L 80.83 746.72 L 95.64 750.53 L 108.48 749.24 L 284.30 669.88 L 297.57 661.92 L 312.56 648.78 L 324.61 633.40 L 333.67 613.73 L 337.70 598.35 L 345.53 536.07 L 352.69 510.14 L 371.66 467.06 L 382.06 460.52 L 394.05 461.82 L 404.81 470.67 L 419.19 501.50 L 432.28 520.69 L 446.17 535.66 L 471.92 558.26 L 497.25 576.43 L 500.24 584.40 L 501.04 592.63 L 513.95 729.43 L 518.35 738.49 L 526.61 741.01 L 535.91 739.98 L 547.29 730.25 L 639.54 627.89" fill="none" stroke="currentColor" stroke-width="2"/>
</svg>